<svg preserveAspectRatio="none" width="100%" height="100%" overflow="visible" style="display: block;" viewBox="0 0 1948 570" fill="none" xmlns="http://www.w3.org/2000/svg">
<g id="_&#235;&#176;&#176;&#234;&#178;&#189;" clip-path="url(#clip0_223_944)">
<path id="Vector" d="M1899.71 118.185C1902.05 114.842 1903.39 111.164 1904.15 107.364C1904.92 103.564 1904.89 99.5657 1904.26 95.6283C1903.63 91.6908 1902.62 87.9212 1900.89 84.3348C1899.16 80.7483 1896.66 77.6961 1894.05 74.7353C1891.43 71.7746 1888.47 69.1649 1885.11 67.1199C1881.74 65.0748 1878.09 63.625 1874.19 62.8314C1870.77 62.1294 1867.38 61.3663 1863.98 61.5494C1860.58 61.7326 1857.13 62.5262 1853.83 63.5029C1850.52 64.4796 1847.3 65.7311 1844.26 67.3793C1841.21 69.0276 1838.45 71.0726 1835.79 73.255C1833.13 75.4374 1831.03 78.1539 1828.81 80.7636C1826.59 83.3733 1824.15 85.8457 1822.44 88.8217C1820.72 91.7976 1819.84 95.1399 1818.75 98.3906C1817.65 101.687 1816.04 104.831 1815.52 108.219C1815 111.607 1815.03 115.117 1815.04 118.566C1815.06 122.015 1815.57 125.419 1816.07 128.837C1816.58 132.256 1817.4 135.552 1818.34 138.879C1819.27 142.206 1819.78 145.671 1821.08 148.86C1822.38 152.05 1824.25 155.011 1825.88 158.032C1827.52 161.054 1829.1 163.877 1831.04 166.701C1827.28 166.701 1823.73 166.899 1820.01 167.403C1816.28 167.907 1812.63 168.883 1809 169.875C1805.37 170.867 1801.85 172.149 1798.37 173.599C1794.9 175.049 1791.39 176.438 1788.13 178.3C1784.87 180.161 1781.71 182.649 1778.7 184.893C1779.68 181.703 1780.29 178.162 1780.73 174.866C1781.18 171.569 1781.7 168.258 1781.58 164.931C1781.45 161.604 1780.92 158.307 1780.18 155.041C1779.39 151.5 1778.15 148.112 1776.68 144.816C1775.21 141.519 1773.48 138.345 1771.41 135.369C1769.36 132.393 1766.91 129.753 1764.35 127.174C1761.8 124.595 1759.24 122.046 1756.28 119.955C1753.33 117.864 1750.33 115.743 1747.05 114.186C1743.78 112.63 1740.3 111.378 1736.79 110.462C1733.29 109.547 1729.97 109.119 1726.34 108.906C1729.05 106.342 1730.61 103.274 1732.35 100.008C1734.1 96.7424 1735.49 93.3696 1736.24 89.7221C1736.99 86.0746 1737.1 82.4271 1736.85 78.7338C1736.61 75.0406 1735.89 71.4541 1734.62 67.9898C1733.35 64.5254 1731.96 61.0611 1729.63 58.1461C1727.3 55.2312 1724.61 52.5299 1721.5 50.5154C1718.39 48.5009 1714.73 47.4784 1711.16 46.3948C1707.6 45.3113 1703.98 44.7618 1700.26 44.6703C1696.54 44.5787 1692.87 44.8839 1689.29 45.8454C1685.7 46.8069 1682.01 48.3483 1678.89 50.4086C1681.35 47.7989 1683.71 44.6398 1684.85 41.3585C1685.98 38.0773 1685.86 34.4298 1685.76 30.9044C1685.67 27.379 1685.46 23.8537 1684.29 20.5419C1683.13 17.2302 1681.11 14.2847 1678.97 11.5224C1676.82 8.76007 1674.37 6.21141 1671.34 4.38004C1668.26 2.5334 1664.83 1.69402 1661.41 0.976733C1657.98 0.259445 1654.49 -0.183137 1650.93 0.122092C1647.38 0.427321 1644 1.2667 1640.66 2.47236C1637.32 3.67801 1634.12 5.15837 1631.23 7.17288C1628.33 9.1874 1625.72 11.5987 1623.5 14.3305C1621.25 17.0928 1619.03 19.9467 1617.56 23.1516C1616.09 26.3565 1615.46 29.9277 1614.75 33.4073C1614.05 36.8869 1613.61 40.3665 1613.64 43.9225C1613.67 47.4784 1613.82 51.019 1614.54 54.4986C1615.26 57.9783 1616.44 61.3358 1617.82 64.5865C1614.34 63.335 1610.73 62.9688 1607.1 62.8161C1603.47 62.6635 1599.72 62.3736 1596.15 63.2129C1592.59 64.0523 1589.12 65.4716 1585.88 67.1504C1582.63 68.8292 1579.8 71.2405 1577.09 73.6518C1574.38 76.0631 1571.58 78.566 1569.6 81.6183C1567.63 84.6705 1565.96 88.0433 1564.98 91.5992C1564 95.1399 1563.82 98.8942 1563.95 102.526C1564.09 106.159 1564.54 109.882 1565.64 113.362C1566.74 116.842 1568.69 120.031 1570.61 123.129C1572.54 126.227 1574.95 128.99 1577.58 131.508C1580.21 134.041 1583.2 136.102 1586.42 137.826C1589.61 139.551 1592.62 141.031 1596.24 141.733C1592.51 142.328 1589.11 143.122 1585.62 144.495C1582.13 145.869 1578.71 147.578 1575.56 149.623C1572.41 151.668 1569.59 154.202 1566.86 156.796C1564.14 159.391 1561.9 162.397 1559.68 165.419C1557.46 168.441 1555.23 171.462 1553.57 174.82C1551.92 178.193 1550.96 181.825 1549.96 185.427C1548.97 189.028 1547.8 192.645 1547.54 196.369C1547.28 200.093 1547.28 203.893 1547.83 207.632C1548.38 211.356 1549.56 214.973 1550.89 218.468C1552.23 221.963 1553.71 225.473 1555.73 228.647C1557.75 231.821 1560.28 234.645 1562.85 237.392C1565.42 240.139 1568.17 242.733 1571.17 244.992C1574.17 247.251 1577.63 248.807 1580.98 250.486C1584.33 252.18 1587.73 253.752 1591.33 254.79C1594.93 255.828 1598.62 256.789 1602.35 257.094C1606.07 257.4 1609.92 257.476 1613.67 256.972C1607.3 257.949 1607.04 256.652 1600.88 258.605C1604.37 259.658 1607.82 260.589 1611.34 261.413C1614.88 262.238 1618.41 263.168 1621.98 263.779C1625.56 264.389 1629.25 264.191 1632.87 264.618C1636.48 265.046 1640.05 265.717 1643.68 265.961C1647.29 266.206 1650.9 266.755 1654.55 266.847C1658.17 266.938 1661.8 266.358 1665.45 266.297C1669.09 266.236 1672.69 266.206 1676.33 266.038C1679.96 265.87 1683.61 266.099 1687.23 265.824C1690.85 265.549 1694.43 264.756 1698.04 264.405C1701.66 264.054 1705.33 264.222 1708.93 263.809C1712.53 263.397 1716.05 262.177 1719.65 261.719C1723.24 261.261 1726.92 261.246 1730.5 260.757C1734.08 260.269 1737.68 259.613 1741.26 259.109C1745.02 258.575 1748.78 258.056 1752.53 257.522C1756.28 256.988 1760.03 256.331 1763.79 255.797C1767.54 255.263 1771.33 254.927 1775.08 254.393C1778.84 253.859 1782.6 253.294 1786.35 252.76C1790.1 252.226 1793.9 251.89 1797.65 251.356C1801.4 250.822 1805.09 249.754 1808.84 249.235C1812.6 248.701 1816.45 248.869 1820.22 248.334C1823.99 247.8 1827.75 247.388 1831.52 246.854C1834.9 246.381 1838.19 245.19 1841.61 244.656C1845.02 244.122 1848.48 244.153 1851.85 243.512C1855.22 242.871 1858.5 241.741 1861.83 240.933C1865.17 240.124 1868.62 239.62 1871.86 238.582C1875.11 237.545 1878.34 236.202 1881.48 234.858C1884.63 233.5 1887.74 232.005 1890.71 230.28C1893.66 228.571 1896.39 226.48 1899.1 224.328C1901.99 222.039 1904.89 219.75 1907.27 217.018C1909.68 214.256 1911.94 211.295 1913.81 208.166C1915.68 205.038 1916.87 201.527 1918.21 198.124C1919.54 194.721 1920.52 191.226 1921.33 187.67C1922.14 184.114 1922.57 180.512 1922.85 176.865C1923.12 173.217 1923.38 169.585 1923.14 165.953C1922.89 162.321 1922.48 158.658 1921.73 155.102C1920.98 151.546 1919.83 148.036 1918.53 144.648C1917.23 141.26 1915.5 138.009 1913.66 134.865C1911.82 131.722 1909.77 128.715 1907.4 125.938C1905.02 123.16 1902.6 120.535 1899.73 118.23L1899.71 118.185Z" fill="var(--fill-0, #B6D1AB)"/>
<path id="Vector_2" d="M1231.84 324.855C1234.64 323.283 1238.3 322.215 1242.36 321.528C1245.68 320.964 1249.4 320.75 1253.32 320.643C1256.81 320.552 1260.5 320.811 1264.3 321.009C1267.87 321.177 1271.53 321.452 1275.25 321.803C1278.86 322.139 1282.57 322.169 1286.21 322.612C1289.88 323.054 1293.54 323.543 1297.11 324.031C1300.85 324.535 1304.49 325.038 1307.98 325.512C1311.84 326.03 1315.47 326.702 1318.84 327.083C1322.95 327.557 1326.64 327.938 1329.74 328.03C1333.29 328.137 1336.84 328.137 1340.39 328.243C1343.94 328.35 1347.5 328.503 1351.05 328.61C1354.6 328.716 1358.15 329.067 1361.7 329.174C1365.26 329.281 1368.81 329.418 1372.36 329.525C1375.91 329.632 1379.46 329.907 1383.02 330.029C1386.57 330.151 1390.14 330.014 1393.69 330.12C1397.24 330.227 1400.79 330.441 1404.34 330.548C1407.9 330.655 1411.46 330.502 1415.02 330.609C1418.57 330.716 1422.1 331.357 1425.66 331.464C1429.21 331.57 1432.76 331.647 1436.31 331.753C1440.05 331.86 1443.81 331.463 1447.55 331.57C1451.29 331.677 1455.02 332.257 1458.76 332.379C1462.49 332.486 1466.24 332.257 1469.98 332.379C1473.72 332.501 1477.47 332.517 1481.2 332.639C1484.94 332.745 1488.66 333.448 1492.41 333.57C1496.16 333.692 1499.91 333.158 1503.65 333.264C1507.38 333.371 1511.13 333.463 1514.87 333.585C1518.61 333.707 1522.34 333.997 1526.08 334.119C1529.81 334.226 1533.55 334.577 1537.28 334.684C1541.02 334.791 1544.77 334.76 1548.51 334.882C1552.24 335.004 1555.98 335.37 1559.71 335.477C1563.45 335.584 1567.2 335.431 1570.94 335.538C1574.67 335.645 1578.42 335.477 1582.16 335.584C1585.89 335.691 1589.63 336.149 1593.37 336.256C1597.1 336.362 1600.84 336.698 1604.57 336.82C1608.31 336.942 1612.06 336.591 1615.81 336.713C1619.55 336.82 1623.3 336.881 1627.03 337.003C1630.77 337.126 1634.5 337.69 1638.24 337.797C1641.98 337.904 1645.71 338.194 1649.45 338.301C1653.18 338.407 1656.95 337.782 1660.69 337.904C1664.42 338.011 1668.14 338.942 1671.88 339.048C1675.61 339.155 1679.36 338.942 1683.1 339.048C1686.84 339.155 1690.59 339.171 1694.32 339.293C1698.06 339.415 1701.79 339.903 1705.53 340.01C1709.27 340.117 1713.02 339.918 1716.75 340.025C1720.49 340.132 1724.24 340.071 1727.97 340.193C1731.71 340.3 1735.43 341.017 1739.18 341.124C1742.92 341.231 1746.68 340.59 1750.42 340.697C1754.16 340.804 1757.88 341.506 1761.63 341.612C1765.36 341.719 1769.13 341.231 1772.86 341.338C1776.6 341.444 1780.34 341.78 1784.07 341.887C1787.81 341.994 1791.56 342.024 1795.29 342.131C1799.03 342.238 1802.77 342.528 1806.5 342.65C1810.24 342.757 1813.96 343.367 1817.71 343.474C1821.44 343.581 1825.2 343.505 1828.93 343.627C1832.67 343.749 1836.42 343.413 1840.17 343.535C1843.92 343.657 1847.64 343.917 1851.38 344.039C1855.11 344.161 1858.85 344.344 1862.6 344.466C1865.66 344.558 1869.26 344.985 1873.22 345.397C1876.55 345.748 1880.08 346.42 1883.79 346.832C1887.23 347.213 1890.86 346.923 1894.47 347.259C1898.01 347.595 1901.56 348.068 1905.1 348.251C1908.73 348.434 1912.3 348.282 1915.76 348.19C1919.49 348.098 1923.03 347.915 1926.35 347.366C1930.15 346.74 1933.58 345.901 1936.53 344.497C1939.95 342.879 1942.58 340.681 1944.4 337.721C1945.89 335.309 1947.25 331.692 1947.69 327.007C1948.02 323.665 1948.03 319.819 1947.97 315.683C1947.91 312.127 1947.17 308.358 1946.9 304.42C1946.64 300.773 1947.02 296.927 1946.62 293.111C1946.22 289.296 1945.14 285.694 1944.69 281.94C1944.25 278.186 1943.73 274.386 1943.24 270.723C1942.72 266.847 1942.47 263.046 1942 259.475C1941.45 255.431 1941.31 251.616 1940.88 248.228C1940.31 243.68 1939.27 239.88 1939.12 237.056C1938.95 233.622 1937.88 230.28 1935.64 226.999C1933.79 224.267 1931.11 221.856 1928.1 219.246C1925.54 217.033 1923.03 214.301 1919.78 212.18C1916.89 210.288 1913.69 208.456 1910.35 206.655C1907.26 204.977 1903.69 203.954 1900.31 202.352C1897.09 200.841 1893.76 199.406 1890.33 197.972C1887.02 196.583 1883.91 194.538 1880.47 193.225C1877.08 191.928 1873.5 191.104 1870.06 189.898C1866.61 188.693 1863.26 187.228 1859.81 186.113C1856.32 184.969 1852.75 184.129 1849.31 183.076C1845.76 181.993 1842.3 180.787 1838.88 179.81C1835.27 178.773 1831.7 177.949 1828.32 177.033C1824.61 176.026 1821.15 174.82 1817.83 173.965C1813.97 172.973 1810.3 172.577 1807.13 171.813C1802.8 170.76 1799.31 169.387 1796.64 168.792C1793.06 167.998 1789.35 167.784 1785.76 167.067C1782.16 166.35 1778.58 165.587 1774.96 164.961C1771.35 164.335 1767.72 163.847 1764.09 163.313C1760.46 162.779 1756.85 162.122 1753.22 161.665C1749.59 161.207 1745.98 160.413 1742.34 160.047C1738.69 159.681 1735.02 159.375 1731.37 159.101C1727.71 158.826 1724.02 158.994 1720.37 158.811C1716.71 158.628 1713.05 158.261 1709.39 158.17C1705.73 158.078 1702.05 158.063 1698.38 158.048C1694.71 158.032 1691.05 158.368 1687.39 158.429C1683.71 158.49 1680.07 158.628 1676.39 158.78C1672.73 158.918 1669.05 158.567 1665.39 158.78C1661.73 159.009 1658.08 159.589 1654.44 159.894C1650.8 160.199 1647.09 160.123 1643.45 160.505C1639.8 160.886 1636.22 161.909 1632.59 162.367C1628.96 162.824 1625.24 162.809 1621.63 163.359C1618 163.893 1614.45 164.946 1610.83 165.572C1607.25 166.182 1603.61 166.365 1600.04 167.037C1596.47 167.708 1592.95 168.609 1589.4 169.356C1585.85 170.089 1582.22 170.516 1578.7 171.325C1575.18 172.134 1571.72 173.324 1568.2 174.194C1564.67 175.064 1561.06 175.568 1557.55 176.483C1554.05 177.399 1550.73 179.017 1547.24 179.978C1543.74 180.94 1540.21 181.794 1536.73 182.817C1533.26 183.839 1529.74 184.709 1526.26 185.778C1522.8 186.846 1519.26 187.716 1515.82 188.845C1512.37 189.975 1508.91 191.058 1505.48 192.233C1502.05 193.408 1498.67 194.721 1495.26 195.942C1491.84 197.163 1488.37 198.2 1484.95 199.452C1481.55 200.703 1478.42 202.657 1475.03 203.954C1471.65 205.251 1468.31 206.64 1464.93 207.968C1461.54 209.296 1458.08 210.364 1454.73 211.753C1451.38 213.126 1447.99 214.439 1444.66 215.843C1441.32 217.247 1438.15 219.048 1434.83 220.497C1431.5 221.947 1428.06 223.122 1424.75 224.603C1421.45 226.083 1418.02 227.289 1414.71 228.784C1411.42 230.295 1408.1 231.745 1404.8 233.271C1401.53 234.813 1398.42 236.72 1395.14 238.277C1391.87 239.834 1388.73 241.665 1385.47 243.252C1382.21 244.839 1378.81 246.121 1375.56 247.739C1372.31 249.357 1368.95 250.715 1365.7 252.333C1362.45 253.951 1359.47 256.057 1356.24 257.705C1353.01 259.353 1349.61 260.65 1346.39 262.329C1343.18 263.993 1340.1 265.931 1336.89 267.61C1333.67 269.288 1330.46 270.967 1327.26 272.661C1324.06 274.355 1320.75 275.866 1317.56 277.591C1314.38 279.3 1311.21 281.07 1308.03 282.795C1304.84 284.519 1301.72 286.366 1298.53 288.106C1295.35 289.846 1292.21 291.646 1289.04 293.401C1285.87 295.157 1282.72 296.942 1279.55 298.697C1276.38 300.452 1272.97 301.78 1269.8 303.55C1266.63 305.321 1263.69 307.488 1260.53 309.258C1257.36 311.028 1254.15 312.692 1251 314.462C1247.83 316.233 1244.78 318.201 1241.63 319.972C1238.47 321.742 1235.03 323.024 1231.87 324.81L1231.84 324.855Z" fill="var(--fill-0, #C7DEBC)"/>
<path id="Vector_3" d="M1079.67 313.776C1075.97 313.821 1072.26 313.577 1068.56 313.623C1064.85 313.669 1061.15 313.272 1057.44 313.302C1053.74 313.333 1050.03 313.882 1046.33 313.913C1042.62 313.959 1038.92 313.928 1035.21 313.959C1031.51 313.989 1027.8 314.127 1024.1 314.157C1020.39 314.188 1016.69 313.669 1012.96 313.699C1009.26 313.73 1005.55 313.928 1001.85 313.959C998.145 313.989 994.439 314.584 990.734 314.615C987.029 314.645 983.324 314.508 979.619 314.539C975.914 314.569 972.209 314.172 968.504 314.203C964.799 314.233 961.093 314.767 957.388 314.798C953.683 314.829 949.978 314.416 946.273 314.447C942.568 314.478 938.863 315.073 935.158 315.103C931.453 315.134 927.732 314.493 924.027 314.539C920.322 314.584 916.617 314.844 912.912 314.89C909.207 314.935 905.501 315.378 901.796 315.424C898.091 315.47 894.386 315.088 890.681 315.134C886.976 315.18 883.271 315.454 879.566 315.5C875.861 315.546 872.155 315.653 868.45 315.714C864.745 315.775 861.04 315.744 857.335 315.821C853.63 315.897 849.925 316.263 846.22 316.339C842.515 316.416 838.794 316.08 835.104 316.172C831.399 316.248 827.694 316.339 823.989 316.431C820.284 316.523 816.579 316.431 812.874 316.538C809.169 316.645 805.479 317.362 801.789 317.469C798.084 317.576 794.379 317.621 790.674 317.743C786.969 317.866 783.263 317.835 779.558 317.972C775.853 318.11 772.163 318.293 768.458 318.43C764.83 318.568 761.186 318.14 757.573 318.308C753.944 318.476 750.346 318.934 746.733 319.102C743.12 319.27 739.491 319.346 735.878 319.529C732.249 319.712 728.636 320.063 725.023 320.246C721.394 320.429 717.781 320.567 714.168 320.735C710.539 320.918 706.911 320.765 703.297 320.933C699.684 321.101 696.056 321.406 692.442 321.544C688.814 321.681 685.216 322.169 681.587 322.276C677.959 322.383 674.345 322.597 670.717 322.673C667.088 322.734 663.46 322.52 659.847 322.551C656.218 322.566 652.605 322.551 648.976 322.52C645.348 322.49 641.719 322.703 638.106 322.612C634.493 322.52 630.864 322.398 627.235 322.23C623.607 322.062 619.994 321.864 616.38 321.62C612.767 321.376 609.154 321.101 605.541 320.781C601.927 320.46 598.391 319.605 594.777 319.193C591.164 318.781 587.536 318.735 583.938 318.217C580.355 317.713 576.772 317.209 573.19 316.599C570.618 316.156 566.775 315.21 562.013 314.05C558.706 313.241 554.925 312.494 550.852 311.471C547.361 310.601 543.748 309.197 539.859 308.251C536.261 307.381 532.479 306.725 528.667 305.855C524.855 304.985 521.349 303.733 517.582 302.94C513.816 302.146 509.973 301.933 506.238 301.231C502.502 300.529 498.766 299.155 495.061 298.575C491.157 297.965 487.314 297.675 483.67 297.293C479.643 296.866 475.785 296.896 472.233 296.82C467.977 296.728 464.165 296.973 460.842 297.507C456.219 298.255 452.896 299.72 450.783 302.009C453.31 299.231 455.744 296.5 458.377 293.981C461.011 291.463 463.552 288.625 466.339 286.274C469.202 283.863 471.973 281.391 474.912 279.224C477.913 277.011 480.991 274.935 484.083 272.951C487.176 270.967 490.483 269.182 493.683 267.365C496.914 265.549 500.221 263.886 503.528 262.253C506.835 260.62 510.341 259.384 513.724 257.888C517.108 256.392 520.583 255.172 524.028 253.829C527.473 252.486 530.673 250.502 534.164 249.265C537.654 248.029 541.145 246.823 544.667 245.679C548.173 244.534 551.924 244.137 555.46 243.054C558.982 241.986 562.427 240.597 565.979 239.559C569.531 238.521 573.083 237.545 576.65 236.537C580.217 235.53 583.815 234.736 587.382 233.729C590.934 232.722 594.318 231.104 597.87 230.066C601.407 229.029 605.066 228.357 608.603 227.258C612.155 226.175 615.783 225.305 619.351 224.191C622.918 223.077 626.485 222.085 630.037 220.971C633.589 219.857 637.034 218.391 640.571 217.277C644.123 216.163 647.751 215.293 651.303 214.164C654.855 213.035 658.377 211.844 661.929 210.715C665.465 209.57 668.895 208.044 672.432 206.9C675.968 205.755 679.52 204.626 683.057 203.481C686.594 202.336 690.238 201.482 693.774 200.322C697.311 199.162 700.71 197.575 704.247 196.415C707.783 195.255 711.335 194.156 714.872 192.996C718.409 191.836 722.083 191.119 725.62 189.944C729.157 188.784 732.54 187.182 736.077 186.007C739.614 184.847 743.288 184.099 746.825 182.924C750.361 181.749 753.699 180.009 757.236 178.849C760.772 177.674 764.508 177.124 768.045 175.949C771.582 174.789 775.103 173.599 778.64 172.424C782.176 171.264 785.682 169.997 789.219 168.837C792.756 167.678 796.384 166.777 799.921 165.617C803.458 164.457 806.872 162.916 810.409 161.756C813.945 160.596 817.482 159.467 821.034 158.322C824.586 157.178 828.123 156.003 831.675 154.843C835.227 153.683 838.794 152.584 842.346 151.439C845.898 150.295 849.42 149.059 852.972 147.914C856.524 146.785 860.076 145.594 863.628 144.465C867.18 143.336 870.885 142.634 874.437 141.519C878.004 140.405 881.357 138.605 884.924 137.506C888.492 136.407 892.181 135.69 895.749 134.606C899.331 133.522 902.792 132.103 906.374 131.05C909.957 129.997 913.57 129.051 917.168 128.013C920.766 126.975 924.548 126.64 928.13 125.632C931.728 124.64 935.204 123.19 938.802 122.214C942.415 121.252 945.952 120.031 949.565 119.1C953.178 118.169 956.883 117.574 960.512 116.674C964.14 115.773 967.845 115.209 971.474 114.354C975.118 113.499 978.7 112.492 982.344 111.683C985.988 110.874 989.601 109.898 993.261 109.135C996.92 108.372 1000.58 107.609 1004.24 106.906C1007.9 106.204 1011.6 105.655 1015.28 104.999C1018.95 104.343 1022.6 103.427 1026.27 102.832C1029.94 102.236 1033.66 101.718 1037.35 101.183C1041.04 100.649 1044.81 100.588 1048.52 100.13C1052.22 99.6726 1055.88 98.7874 1059.59 98.3906C1063.29 97.9938 1067.06 98.1311 1070.78 97.7954C1074.5 97.4596 1078.22 97.3375 1081.95 97.0934C1085.69 96.8492 1089.39 96.4982 1093.13 96.3303C1096.87 96.1624 1100.59 95.8724 1104.32 95.7809C1108.04 95.6893 1111.78 95.8267 1115.5 95.8114C1119.22 95.7961 1122.95 95.3383 1126.68 95.4146C1130.4 95.4909 1134.12 95.7504 1137.84 95.8877C1141.56 96.0251 1145.29 95.903 1149.01 96.1166C1152.73 96.3303 1156.47 96.4524 1160.17 96.7271C1163.88 97.0018 1167.55 97.948 1171.26 98.2838C1174.96 98.6195 1178.67 98.9705 1182.37 99.3826C1186.08 99.7946 1189.82 99.932 1193.5 100.39C1197.19 100.848 1200.9 101.306 1204.59 101.84C1208.28 102.374 1211.91 103.29 1215.58 103.869C1219.26 104.449 1222.96 104.846 1226.64 105.472C1230.31 106.098 1234.02 106.555 1237.68 107.227C1241.33 107.898 1244.9 109.058 1248.56 109.776C1252.22 110.493 1255.96 110.752 1259.62 111.5C1263.26 112.248 1266.84 113.362 1270.47 114.156C1274.11 114.949 1277.73 115.804 1281.37 116.628C1285.02 117.452 1288.63 118.322 1292.24 119.192C1295.85 120.062 1299.5 120.901 1303.11 121.786C1306.73 122.672 1310.34 123.587 1313.95 124.488C1317.56 125.388 1321.32 125.77 1324.91 126.701C1328.51 127.632 1332.13 128.593 1335.72 129.539C1339.32 130.485 1342.92 131.462 1346.52 132.439C1350.11 133.416 1353.53 135.049 1357.13 136.025C1360.72 137.002 1364.51 137.277 1368.09 138.269C1371.67 139.261 1375.1 140.878 1378.68 141.87C1382.24 142.862 1385.79 143.793 1389.32 144.785C1392.86 145.777 1396.41 146.754 1399.95 147.746C1403.49 148.738 1407.1 149.486 1410.65 150.478C1414.2 151.47 1417.74 152.447 1421.28 153.454C1424.81 154.461 1428.44 155.178 1431.98 156.186C1435.52 157.193 1438.95 158.582 1442.48 159.604C1446.02 160.627 1449.51 161.802 1453.03 162.824C1456.57 163.847 1460.21 164.503 1463.73 165.541C1467.27 166.564 1470.7 167.922 1474.24 168.96C1477.77 169.997 1481.23 171.249 1484.75 172.287C1488.28 173.324 1491.87 174.164 1495.39 175.201C1498.92 176.255 1502.48 177.17 1506.01 178.223C1509.53 179.276 1512.97 180.619 1516.49 181.672C1520.01 182.725 1523.6 183.58 1527.12 184.633C1530.64 185.686 1534.25 186.449 1537.77 187.517C1541.3 188.586 1544.83 189.624 1548.34 190.692C1551.86 191.76 1555.35 192.905 1558.87 193.973C1562.39 195.057 1565.95 196.018 1569.45 197.102C1572.97 198.185 1576.4 199.544 1579.91 200.642C1583.41 201.741 1586.94 202.794 1590.46 203.893C1593.96 204.992 1597.5 206.03 1601.01 207.128C1604.51 208.227 1607.93 209.647 1611.43 210.745C1614.94 211.844 1618.57 212.592 1622.07 213.706C1625.58 214.82 1628.93 216.407 1632.44 217.522C1635.94 218.636 1639.53 219.49 1643.03 220.62C1646.54 221.749 1650.17 222.481 1653.66 223.611C1657.16 224.74 1660.43 226.602 1663.92 227.731C1667.41 228.861 1670.99 229.792 1674.48 230.921C1677.97 232.066 1681.65 232.676 1685.15 233.805C1688.64 234.95 1691.92 236.797 1695.41 237.941C1698.9 239.086 1702.44 240.093 1705.94 241.253C1709.43 242.413 1712.94 243.512 1716.43 244.672C1719.92 245.832 1723.57 246.534 1727.06 247.693C1730.55 248.853 1733.87 250.517 1737.36 251.677C1740.85 252.837 1744.4 253.829 1747.88 255.004C1751.35 256.179 1754.91 257.186 1758.4 258.361C1761.89 259.536 1765.18 261.246 1768.67 262.436C1772.15 263.626 1775.74 264.496 1779.22 265.687C1782.69 266.877 1786.03 268.48 1789.52 269.67C1793 270.86 1796.6 271.73 1800.07 272.936C1803.55 274.142 1806.96 275.546 1810.42 276.751C1813.9 277.957 1817.59 278.537 1821.06 279.742C1824.54 280.948 1828.01 282.154 1831.49 283.375C1834.96 284.596 1838.33 286.076 1841.81 287.312C1845.28 288.533 1848.68 289.952 1852.14 291.189C1855.6 292.425 1859.2 293.295 1862.66 294.531C1866.12 295.767 1869.63 296.881 1873.1 298.133C1876.58 299.384 1879.76 301.353 1883.22 302.604C1886.68 303.856 1890.34 304.542 1893.8 305.794C1897.26 307.045 1900.58 308.51 1904.04 309.762C1900.37 309.624 1896.73 309.884 1893.05 309.762C1889.38 309.624 1885.7 309.35 1882.03 309.197C1878.35 309.044 1874.68 308.968 1870.99 308.816C1867.3 308.663 1863.64 308.312 1859.97 308.159C1856.29 308.007 1852.62 307.869 1848.93 307.701C1845.24 307.534 1841.58 307.183 1837.9 306.999C1834.23 306.832 1830.57 306.374 1826.9 306.191C1823.22 306.007 1819.55 305.931 1815.87 305.748C1812.2 305.565 1808.52 305.443 1804.85 305.26C1801.17 305.076 1797.5 304.848 1793.82 304.664C1790.15 304.481 1786.48 304.146 1782.8 303.962C1779.13 303.779 1775.42 304.313 1771.73 304.13C1768.06 303.947 1764.41 303.215 1760.74 303.031C1757.06 302.848 1753.37 303.062 1749.68 302.879C1746 302.696 1742.34 302.436 1738.66 302.253C1734.99 302.07 1731.34 301.261 1727.67 301.078C1723.99 300.895 1720.32 300.773 1716.63 300.59C1712.96 300.406 1709.27 300.376 1705.59 300.208C1701.92 300.025 1698.24 299.765 1694.57 299.598C1690.89 299.43 1687.19 299.857 1683.51 299.689C1679.84 299.521 1676.15 299.399 1672.47 299.231C1668.8 299.063 1665.14 298.255 1661.47 298.102C1657.79 297.949 1654.09 298.148 1650.41 297.995C1646.74 297.843 1643.05 297.827 1639.37 297.69C1635.7 297.553 1632.01 297.553 1628.33 297.415C1624.66 297.278 1621 296.576 1617.31 296.454C1613.64 296.332 1609.95 296.347 1606.27 296.225C1602.6 296.103 1598.92 295.767 1595.23 295.66C1591.56 295.553 1587.85 296.011 1584.18 295.92C1580.51 295.828 1576.83 295.401 1573.14 295.324C1569.47 295.248 1565.78 295.37 1562.09 295.294C1558.41 295.218 1554.72 294.851 1551.05 294.79C1547.37 294.729 1543.68 294.683 1540.01 294.653C1536.32 294.607 1532.65 294.454 1528.97 294.424C1525.3 294.393 1521.61 294.912 1517.92 294.897C1514.23 294.897 1510.55 294.332 1506.88 294.332C1503.2 294.332 1499.51 294.302 1495.84 294.332C1492.16 294.363 1488.47 294.638 1484.8 294.683C1481.13 294.729 1477.44 295.157 1473.76 295.218C1470.09 295.279 1466.38 294.775 1462.71 294.851C1459.03 294.928 1455.36 295.431 1451.67 295.538C1447.98 295.645 1444.32 296.026 1440.65 296.133C1436.97 296.24 1433.25 295.523 1429.58 295.66C1425.9 295.797 1422.24 296.469 1418.57 296.622C1414.89 296.774 1411.2 296.866 1407.53 297.049C1403.85 297.232 1400.15 297.018 1396.47 297.232C1392.8 297.446 1389.14 298.056 1385.47 298.285C1381.79 298.514 1378.1 298.453 1374.43 298.712C1370.75 298.972 1367.11 299.659 1363.45 299.933C1359.78 300.208 1356.07 300.116 1352.41 300.422C1348.74 300.727 1345.06 300.956 1341.4 301.292C1337.77 301.612 1334.15 301.887 1330.52 302.192C1326.89 302.497 1323.28 302.894 1319.65 303.184C1316.02 303.474 1312.37 303.627 1308.75 303.901C1305.12 304.176 1301.55 305.199 1297.91 305.458C1294.28 305.717 1290.6 305.489 1286.97 305.733C1283.35 305.977 1279.72 306.282 1276.07 306.511C1272.45 306.74 1268.82 307.045 1265.17 307.259C1261.53 307.473 1257.92 307.885 1254.27 308.083C1250.64 308.281 1246.98 308.175 1243.36 308.373C1239.73 308.571 1236.07 308.541 1232.44 308.709C1228.81 308.877 1225.18 309.35 1221.54 309.518C1217.89 309.67 1214.27 309.701 1210.62 309.838C1206.98 309.991 1203.35 310.342 1199.72 310.479C1196.08 310.616 1192.45 310.967 1188.82 311.089C1185.18 311.212 1181.53 310.784 1177.89 310.906C1174.24 311.028 1170.63 311.608 1166.99 311.715C1163.34 311.822 1159.7 311.883 1156.07 311.975C1152.43 312.066 1148.78 311.532 1145.14 311.624C1141.5 311.715 1137.87 312.31 1134.24 312.387C1130.59 312.463 1126.95 312.463 1123.32 312.539C1119.68 312.616 1116.03 312.646 1112.41 312.707C1108.78 312.768 1105.13 313.028 1101.49 313.089C1097.85 313.15 1094.2 313.272 1090.57 313.333C1086.93 313.394 1083.29 313.562 1079.66 313.608L1079.67 313.776Z" fill="var(--fill-0, #B6D1AB)"/>
<path id="Vector_4" d="M48.6104 77.8639C50.4018 74.7659 52.8973 72.0951 55.546 69.8059C58.1947 67.5167 61.5324 66.0668 64.7629 64.7086C67.9934 63.3503 71.3923 62.3888 74.883 62.1294C78.3738 61.8699 81.9871 61.7936 85.386 62.8314C88.7849 63.8692 92.0613 65.6243 94.909 67.8524C97.7108 70.0348 100.191 72.7514 102.227 75.7426C104.264 78.7338 105.733 82.0303 106.775 85.4641C107.816 88.898 108.26 92.1944 108.168 95.7961C110.862 92.4081 114.491 91.7366 118.395 91.8434C122.039 91.9503 126.035 92.7439 129.495 94.9568C132.772 97.0629 135.635 100.054 137.686 103.274C139.845 106.662 141.621 110.356 143.259 114.095C144.897 117.834 146.428 121.619 148.266 125.174C150.149 128.822 152.17 131.874 155.018 134.774C155.293 131.157 156.212 128.028 157.253 124.595C158.309 121.13 159.519 117.712 161.249 114.537C162.979 111.348 164.877 108.204 167.189 105.441C169.532 102.649 172.502 100.481 175.319 98.2532C178.182 95.9945 181.26 94.1632 184.505 92.6218C187.751 91.0804 190.982 89.5542 194.534 88.8522C193.477 85.2657 193.217 81.6488 193.232 77.9708C193.232 74.2775 193.554 70.569 194.503 66.9825C195.437 63.4113 196.539 59.7791 198.254 56.4979C199.969 53.2167 202.434 50.3018 204.837 47.5089C207.241 44.7161 210.12 42.2742 213.105 40.1376C216.091 38.001 219.29 35.9102 222.766 34.6893C226.241 33.4684 230.115 33.0716 233.866 33.0563C233.667 29.4241 233.82 25.5477 235.183 22.2512C236.561 18.9242 238.995 16.0245 241.506 13.4911C244.017 10.9577 247.063 8.66851 250.34 7.35602C253.616 6.04354 257.367 5.82988 260.981 6.3335C264.594 6.83713 268.069 8.04279 270.948 10.271C273.826 12.4991 275.648 15.6125 277.424 18.8174C279.169 21.9612 280.838 25.2272 281.267 28.8136C281.696 32.4001 281.466 35.8186 280.287 39.283C284.421 38.4741 288.325 39.1304 291.816 40.9312C295.307 42.7321 298.047 45.7844 300.405 49.1266C302.763 52.4689 304.232 56.0706 305.166 59.9165C306.131 63.8387 306.636 67.8982 305.871 71.7136C305.105 75.5289 302.87 79.3138 299.915 82.2287C304.156 81.0383 308.443 81.1452 311.689 82.9613C314.965 84.7926 317.445 88.1502 319.328 91.7519C321.089 95.1552 321.977 99.0774 322.115 102.954C322.268 106.937 321.87 110.768 319.941 114.11C323.983 115.163 327.045 118.459 329.663 122.305C332.159 125.983 334.057 130.592 335.175 134.453C336.292 130.852 337.931 127.067 340.028 124.03C342.156 120.947 344.943 118.398 347.836 116.063C350.73 113.728 353.869 111.607 357.283 110.157C360.697 108.707 364.402 107.715 368.092 107.349C371.782 106.983 375.655 107.38 379.315 108.326C378.779 105.075 378.962 101.58 379.315 98.1617C379.667 94.8347 380.417 91.5992 381.535 88.3943C382.652 85.1894 383.969 82.1066 385.776 79.3138C387.582 76.5209 389.741 73.8044 392.252 71.6525C394.763 69.5007 397.61 67.4404 400.81 66.3263C402.295 65.8074 407.149 66.7231 412.599 67.6998C416.503 68.4018 420.882 68.7223 424.312 69.9432C430.053 71.973 433.452 74.7659 430.007 77.4061C433.299 74.888 437.188 73.1634 441.168 72.5377C445.149 71.912 449.359 72.6293 453.233 73.8502C457.107 75.0711 460.842 76.9177 463.705 79.909C466.568 82.9002 468.819 86.8224 469.998 90.9277C471.146 94.9568 471.437 99.4131 470.871 103.595C470.304 107.776 468.375 111.882 466.002 115.377C469.401 115.88 473.029 116.72 475.954 118.49C478.878 120.26 481.052 123.007 483.257 125.663C485.461 128.318 487.375 131.065 488.722 134.224C490.054 137.353 490.652 140.711 490.988 144.099C491.325 147.471 491.478 150.753 490.667 154.095C494.372 152.096 498.276 153.301 501.706 155.743C504.829 157.971 507.86 161.176 509.101 164.931C510.402 168.883 510.524 173.156 510.754 177.353C510.984 181.52 510.861 185.747 511.52 189.837C512.04 193.042 512.79 196.217 513.801 199.299C514.811 202.367 516.388 205.267 517.414 208.334C518.44 211.402 519.374 214.515 519.956 217.705C520.537 220.894 520.124 224.084 519.757 227.289C519.374 230.57 518.501 233.622 517.016 236.324C515.439 239.208 513.541 242.031 510.57 243.405C506.896 243.039 503.145 242.733 499.47 242.382C495.796 242.031 492.167 241.238 488.493 240.902C484.818 240.566 481.144 240.307 477.454 239.986C473.764 239.666 470.074 239.62 466.4 239.33C462.725 239.04 459.066 238.369 455.392 238.094C451.717 237.819 448.043 237.331 444.368 237.071C440.694 236.812 436.989 236.888 433.299 236.644C429.609 236.4 425.935 236.079 422.26 235.851C418.586 235.622 414.881 235.53 411.206 235.332C407.532 235.133 403.826 235.179 400.137 234.981C396.447 234.782 392.757 234.691 389.083 234.508C385.393 234.34 381.734 233.76 378.044 233.607C374.354 233.454 370.679 232.859 367.005 232.722C363.315 232.585 359.625 232.63 355.936 232.508C352.246 232.386 348.556 232.249 344.866 232.157C341.176 232.066 337.471 232.478 333.781 232.401C330.092 232.325 326.417 231.73 322.727 231.654C319.038 231.593 315.348 231.867 311.658 231.821C307.968 231.776 304.278 232.066 300.589 232.035C296.899 232.005 293.209 231.791 289.519 231.776C285.829 231.776 282.14 231.852 278.45 231.867C274.76 231.867 271.07 231.852 267.38 231.867C263.691 231.898 260.001 231.944 256.311 232.005C252.621 232.05 248.916 231.547 245.226 231.623C241.536 231.684 237.847 231.928 234.157 232.02C230.467 232.111 226.793 232.493 223.103 232.6C219.413 232.707 215.723 232.554 212.033 232.676C208.344 232.798 204.654 232.875 200.964 233.012C197.274 233.149 193.615 233.882 189.925 234.034C186.235 234.187 182.515 233.607 178.825 233.775C175.135 233.943 171.476 234.645 167.786 234.828C164.097 235.026 160.437 235.545 156.748 235.759C153.058 235.973 149.337 235.561 145.663 235.789C141.988 236.018 138.299 236.308 134.624 236.553C130.95 236.797 127.29 237.361 123.601 237.621C119.926 237.896 116.221 237.941 112.547 238.231C108.872 238.521 105.167 238.491 101.477 238.796C97.7874 239.101 94.1588 239.864 90.4843 240.185C86.8098 240.505 83.1659 241.207 79.4915 241.543C75.817 241.879 72.1119 241.818 68.4374 242.184C64.7629 242.535 61.0578 242.55 57.3833 242.932C53.7088 243.313 50.0649 243.893 46.3904 244.29C42.7159 244.687 39.2099 245.114 35.5507 245.526C35.6885 241.879 35.5507 238.369 35.6885 234.721C35.8263 231.074 35.9181 227.426 36.0559 223.779C36.1937 220.131 36.5459 216.484 36.6837 212.836C36.8214 209.189 37.2961 205.557 37.4492 201.909C37.6023 198.262 37.6941 194.614 37.8319 190.967C37.9697 187.319 37.4645 183.641 37.6023 179.994C37.7401 176.346 38.4443 172.714 38.5975 169.066C38.7352 165.419 39.0568 161.771 39.1946 158.124C39.3324 154.476 39.2864 150.814 39.4395 147.166C39.5926 143.519 39.6232 139.871 39.7763 136.208C39.9295 132.546 39.9754 128.914 40.1132 125.251C40.251 121.588 40.7868 117.971 40.9246 114.324C41.0624 110.676 40.6337 106.998 40.7715 103.351" fill="var(--fill-0, #B6D1AB)"/>
<path id="Vector_5" d="M795.052 313.592C792.189 312.127 788.79 311.044 784.779 310.311C781.472 309.716 777.859 309.243 773.955 309.044C770.479 308.861 766.82 308.632 763.023 308.693C759.471 308.754 755.827 308.938 752.107 309.167C748.509 309.395 744.896 310.052 741.236 310.387C737.593 310.708 733.964 311.074 730.351 311.456C726.661 311.853 723.032 312.265 719.48 312.661C715.729 313.089 712.07 313.318 708.595 313.714C704.752 314.142 701.077 314.477 697.709 314.783C693.621 315.149 689.931 315.515 686.793 315.576C683.21 315.637 679.627 315.668 676.029 315.744C672.432 315.821 668.849 315.637 665.266 315.698C661.684 315.759 658.101 315.805 654.503 315.882C650.905 315.958 647.323 315.851 643.74 315.912C640.157 315.973 636.575 316.278 632.992 316.355C629.409 316.416 625.827 316.385 622.229 316.446C618.631 316.507 615.064 316.858 611.481 316.919C607.898 316.98 604.3 316.523 600.718 316.584C597.135 316.645 593.552 316.751 589.97 316.812C586.387 316.874 582.805 317.469 579.222 317.545C575.639 317.606 572.041 317.225 568.459 317.286C564.876 317.347 560.957 317.774 557.19 317.85C553.439 317.927 549.673 318.079 545.922 318.156C542.171 318.232 538.405 317.713 534.638 317.789C530.872 317.866 527.136 318.583 523.385 318.644C519.634 318.72 515.868 318.812 512.117 318.873C508.366 318.934 504.599 318.827 500.848 318.888C497.097 318.949 493.331 318.812 489.58 318.888C485.829 318.964 482.078 319.178 478.311 319.254C474.56 319.331 470.794 319.148 467.043 319.209C463.292 319.285 459.541 319.636 455.774 319.697C452.008 319.758 448.272 320.139 444.506 320.201C440.755 320.277 436.989 320.002 433.238 320.078C429.487 320.155 425.72 320.002 421.969 320.078C418.218 320.155 414.467 320.674 410.716 320.735C406.965 320.796 403.199 320.933 399.448 321.009C395.697 321.086 391.93 320.689 388.164 320.765C384.398 320.842 380.646 320.735 376.895 320.811C373.144 320.887 369.393 321.696 365.642 321.772C361.891 321.849 358.11 321.116 354.359 321.177C350.608 321.254 346.856 321.65 343.09 321.727C339.324 321.803 335.573 321.971 331.822 322.047C328.071 322.123 324.304 321.803 320.553 321.879C316.802 321.956 313.051 322.337 309.285 322.413C305.534 322.49 301.783 322.734 298.016 322.795C294.25 322.856 290.499 322.337 286.733 322.413C282.966 322.49 279.231 323.329 275.48 323.39C271.728 323.466 267.962 322.948 264.196 323.024C260.445 323.1 256.694 323.787 252.943 323.848C249.192 323.909 245.425 323.772 241.674 323.848C237.923 323.924 234.157 324.092 230.406 324.153C226.655 324.23 222.888 324.123 219.137 324.184C215.386 324.245 211.62 323.833 207.854 323.909C204.087 323.985 200.352 324.245 196.585 324.321C192.834 324.397 189.083 324.901 185.332 324.962C181.581 325.038 177.815 324.962 174.064 325.023C170.313 325.084 166.546 325.084 162.795 325.161C159.044 325.237 155.278 325.191 151.527 325.267C147.776 325.344 144.009 325.145 140.258 325.222C136.507 325.298 132.756 326.046 129.005 326.122C125.254 326.198 121.488 326.061 117.737 326.137C113.986 326.214 110.235 326.504 106.468 326.58C102.702 326.656 98.9509 326.626 95.1999 326.702C92.1531 326.763 88.6317 326.885 84.7582 327.206C81.4971 327.48 77.991 327.862 74.3319 328.213C70.9636 328.533 67.4116 328.365 63.8596 328.671C60.3076 328.976 56.924 329.312 53.4179 329.51C49.8965 329.708 46.4057 330.395 42.9609 330.441C39.3783 330.487 35.8722 329.693 32.5039 329.495C28.8447 329.266 25.2621 329.525 22.0316 328.9C18.3265 328.182 14.8817 327.175 11.988 325.786C8.58912 324.169 5.94042 321.788 4.04194 319.041C2.38842 316.645 1.71476 312.86 1.16359 308.236C0.765519 304.893 -0.0306207 301.108 0.0153104 296.973C0.0459311 293.417 0.42869 289.601 0.704277 285.664C0.949243 282.001 0.979864 278.186 1.37793 274.355C1.76069 270.616 2.90897 266.923 3.38359 263.184C3.85821 259.384 4.33284 255.614 4.83808 251.951C5.37394 248.06 5.25146 244.198 5.7567 240.643C6.32318 236.598 6.81312 232.813 7.25712 229.425C7.83891 224.862 9.01781 221.077 9.1556 218.239C9.32402 214.79 10.3039 211.325 12.7689 208.059C14.7592 205.419 17.6222 203.054 20.8221 200.535C23.5167 198.429 26.4257 196.155 29.8246 194.141C32.8407 192.355 36.1784 190.753 39.6539 189.059C42.8537 187.487 46.1455 185.808 49.6515 184.313C52.9586 182.909 56.4953 181.794 60.0167 180.451C63.4156 179.154 66.7226 177.43 70.2593 176.209C73.796 174.988 77.4092 174.393 80.9459 173.263C84.452 172.134 87.8356 170.516 91.3723 169.463C94.9396 168.41 98.5222 167.479 102.059 166.502C105.657 165.495 109.224 164.457 112.73 163.542C116.374 162.58 120.018 161.848 123.509 160.978C127.214 160.062 130.919 159.589 134.364 158.78C138.161 157.895 141.774 157.071 145.158 156.323C149.108 155.453 152.644 154.293 155.89 153.622C160.284 152.706 164.005 152.187 166.776 151.653C170.343 150.966 173.911 150.249 177.493 149.639C181.076 149.028 184.628 148.128 188.226 147.578C191.824 147.029 195.422 146.495 199.035 146.022C202.648 145.548 206.323 145.655 209.936 145.259C213.549 144.862 217.132 144.175 220.76 143.839C224.389 143.503 228.048 143.641 231.677 143.381C235.305 143.122 238.903 142.298 242.532 142.099C246.16 141.901 249.819 142.267 253.463 142.145C257.107 142.023 260.72 141.458 264.364 141.397C268.008 141.336 271.637 141.794 275.28 141.809C278.924 141.809 282.553 141.672 286.197 141.748C289.841 141.825 293.454 142.283 297.098 142.42C300.742 142.557 304.385 142.344 308.014 142.557C311.643 142.771 315.256 143.381 318.869 143.656C322.498 143.931 326.187 143.534 329.801 143.87C333.429 144.205 337.027 144.724 340.64 145.136C344.254 145.533 347.852 146.159 351.45 146.617C355.048 147.075 358.63 147.807 362.228 148.326C365.826 148.845 369.409 149.455 373.007 150.035C376.666 150.631 380.325 151.119 383.969 151.76C387.613 152.401 391.211 153.286 394.839 153.988C398.468 154.69 402.234 154.705 405.863 155.468C409.491 156.216 413.12 156.934 416.733 157.742C420.346 158.551 423.883 159.681 427.481 160.535C431.079 161.39 434.646 162.351 438.244 163.252C441.827 164.152 445.517 164.686 449.084 165.633C452.651 166.579 456.142 167.845 459.709 168.837C463.277 169.829 466.737 171.142 470.289 172.18C473.841 173.217 477.362 174.347 480.899 175.43C484.435 176.514 488.079 177.216 491.616 178.345C495.153 179.475 498.751 180.345 502.257 181.489C505.763 182.649 509.162 184.145 512.668 185.335C516.174 186.525 519.557 188.021 523.048 189.242C526.539 190.478 530.183 191.241 533.658 192.508C537.134 193.775 540.456 195.423 543.916 196.72C547.376 198.017 550.928 199.055 554.389 200.383C557.833 201.711 561.278 203.084 564.708 204.442C568.137 205.801 571.49 207.388 574.92 208.761C578.349 210.15 581.779 211.508 585.208 212.913C588.623 214.332 592.083 215.629 595.497 217.079C598.911 218.529 602.325 219.902 605.724 221.367C609.123 222.832 612.522 224.267 615.906 225.763C619.289 227.258 622.474 229.196 625.842 230.707C629.21 232.218 632.778 233.302 636.146 234.828C639.514 236.354 642.821 238.002 646.174 239.544C649.527 241.085 652.972 242.459 656.325 244.015C659.678 245.587 662.755 247.709 666.093 249.296C669.431 250.883 672.921 252.15 676.259 253.752C679.597 255.355 683.088 256.606 686.425 258.224C689.748 259.841 692.978 261.658 696.3 263.275C699.623 264.893 703.068 266.282 706.375 267.915C709.682 269.548 712.759 271.669 716.066 273.317C719.373 274.966 722.757 276.461 726.064 278.109C729.371 279.758 732.509 281.742 735.816 283.405C739.124 285.069 742.706 286.168 746.013 287.831C749.32 289.495 752.52 291.356 755.812 293.035C759.104 294.714 762.411 296.377 765.702 298.056C768.994 299.735 772.286 301.429 775.562 303.123C778.839 304.817 782.268 306.252 785.56 307.93C788.852 309.609 791.791 311.959 795.083 313.653L795.052 313.592Z" fill="var(--fill-0, #C7DEBC)"/>
<path id="Vector_6" d="M-13.289 226.224C-17.438 230.096 -12.7033 231.964 -12.7033 237.458C-12.7033 242.952 -12.7033 242.952 -12.7033 248.431C-12.7033 253.925 -13.4843 253.925 -13.4843 259.404C-13.4843 264.899 -12.6545 264.899 -12.6545 270.393C-12.6545 275.887 -13.1914 275.887 -13.1914 281.382C-13.1914 286.876 -13.3216 286.876 -13.3216 292.355C-13.3216 297.849 -12.7358 297.849 -12.7358 303.343C-12.7358 308.838 -13.289 308.838 -13.289 314.332C-13.289 319.826 -12.7846 319.826 -12.7846 325.321C-12.7846 330.815 -12.7521 330.815 -12.7521 336.309C-12.7521 341.804 -12.8335 341.804 -12.8335 347.298C-12.8335 352.792 -12.687 352.792 -12.687 358.286C-12.687 363.781 -12.8335 363.781 -12.8335 369.275C-12.8335 374.769 -12.866 374.769 -12.866 380.264C-12.866 385.758 -12.5731 385.758 -12.5731 391.252C-12.5731 396.747 -13.0938 396.747 -13.0938 402.241C-13.0938 407.735 -13.3216 407.735 -13.3216 413.229C-13.3216 418.724 -12.866 418.724 -12.866 424.218C-12.866 429.712 -13.2239 429.712 -13.2239 435.207C-13.2239 440.701 -12.7846 440.701 -12.7846 446.195C-12.7846 451.69 -13.2565 451.69 -13.2565 457.184C-13.2565 460.847 -13.2565 464.51 -13.2565 468.172C-13.2565 473.667 -12.6219 473.667 -12.6219 479.161C-12.6219 484.655 -12.9636 484.655 -12.9636 490.15C-12.9636 495.644 -13.3541 495.644 -13.3541 501.138C-13.3541 506.633 -12.6057 506.632 -12.6057 512.127C-12.6057 517.621 -12.6219 517.621 -12.6219 523.115C-12.6219 528.61 -13.3053 528.61 -13.3053 534.119C-13.3053 539.629 -12.6545 539.629 -12.6545 545.123C-12.6545 550.618 -17.4542 552.531 -13.3216 556.418C-9.18888 560.305 -7.13881 555.806 -1.28147 555.806C4.57587 555.806 4.57587 555.729 10.4495 555.729C16.3231 555.729 16.3068 555.867 22.1805 555.867C28.0541 555.867 28.0378 555.699 33.9114 555.699C39.785 555.699 39.7688 556.158 45.6424 556.158C51.516 556.158 51.4997 556.173 57.3733 556.173C63.2469 556.173 63.2307 555.882 69.1043 555.882C74.9779 555.882 74.9616 556.387 80.8352 556.387C86.7089 556.387 86.6926 556.066 92.5662 556.066C98.4398 556.066 98.4235 555.913 104.297 555.913C110.171 555.913 110.154 555.821 116.028 555.821C121.902 555.821 121.885 556.035 127.759 556.035C133.633 556.035 133.616 555.852 139.49 555.852C145.364 555.852 145.347 556.265 151.221 556.265C157.095 556.265 157.078 555.836 162.952 555.836C168.826 555.836 168.809 556.081 174.683 556.081C180.557 556.081 180.54 556.035 186.414 556.035C192.287 556.035 192.271 556.158 198.145 556.158C204.018 556.158 204.002 556.066 209.876 556.066C215.749 556.066 215.733 555.898 221.607 555.898C227.48 555.898 227.464 556.341 233.338 556.341C239.211 556.341 239.195 556.066 245.069 556.066C250.942 556.066 250.926 556.173 256.8 556.173C262.673 556.173 262.657 556.173 268.531 556.173C274.404 556.173 274.388 556.097 280.262 556.097C286.135 556.097 286.119 555.76 291.993 555.76C297.866 555.76 297.85 555.821 303.723 555.821C309.597 555.821 309.581 555.989 315.454 555.989C321.328 555.989 321.312 556.387 327.185 556.387C333.059 556.387 333.043 555.76 338.916 555.76C344.79 555.76 344.774 556.188 350.647 556.188C356.521 556.188 356.505 555.882 362.378 555.882C368.252 555.882 368.236 556.142 374.109 556.142C379.983 556.142 379.967 555.714 385.84 555.714C391.714 555.714 391.698 556.234 397.571 556.234C403.445 556.234 403.428 556.112 409.302 556.112C415.176 556.112 415.159 556.005 421.033 556.005C426.907 556.005 426.89 555.943 432.764 555.943C438.638 555.943 438.621 555.867 444.495 555.867C450.369 555.867 450.352 555.806 456.226 555.806C462.1 555.806 462.083 556.387 467.957 556.387C473.831 556.387 473.814 556.219 479.688 556.219C485.561 556.219 485.545 555.974 491.419 555.974C497.292 555.974 497.276 555.867 503.15 555.867C509.023 555.867 509.007 556.494 514.881 556.494C520.754 556.494 520.738 556.403 526.612 556.403C532.485 556.403 532.469 555.699 538.343 555.699C544.216 555.699 544.2 555.852 550.074 555.852C555.947 555.852 555.931 556.464 561.805 556.464C567.678 556.464 567.662 556.494 573.536 556.494C579.409 556.494 579.393 555.852 585.266 555.852C591.14 555.852 591.124 556.173 596.997 556.173C602.871 556.173 602.855 556.234 608.728 556.234C614.602 556.234 614.586 556.234 620.459 556.234C626.333 556.234 626.317 555.744 632.19 555.744C638.064 555.744 638.048 555.943 643.921 555.943C649.795 555.943 649.779 555.913 655.652 555.913C661.526 555.913 661.51 556.295 667.383 556.295C673.257 556.295 673.241 555.959 679.114 555.959C684.988 555.959 684.988 556.28 690.845 556.28C696.702 556.28 696.702 555.729 702.576 555.729C708.45 555.729 708.433 555.882 714.307 555.882C720.181 555.882 720.164 556.02 726.038 556.02C731.912 556.02 731.895 556.418 737.769 556.418C743.643 556.418 743.626 555.852 749.5 555.852C755.373 555.852 755.357 555.744 761.231 555.744C767.104 555.744 767.104 555.852 772.962 555.852C778.819 555.852 778.819 556.051 784.693 556.051C790.566 556.051 790.55 555.928 796.424 555.928C802.297 555.928 802.281 556.311 808.155 556.311C814.028 556.311 814.012 556.341 819.869 556.341C825.727 556.341 825.727 555.821 831.584 555.821C837.441 555.821 837.441 556.51 843.299 556.51C849.156 556.51 849.156 556.479 855.013 556.479C860.871 556.479 860.871 555.699 866.728 555.699C872.585 555.699 872.585 556.142 878.459 556.142C884.333 556.142 884.316 555.959 890.19 555.959C896.064 555.959 896.047 556.403 901.921 556.403C907.795 556.403 907.795 556.494 913.652 556.494C919.509 556.494 919.509 556.479 925.383 556.479C931.256 556.479 931.24 556.188 937.114 556.188C942.987 556.188 942.971 556.127 948.845 556.127C954.718 556.127 954.702 556.326 960.576 556.326C966.449 556.326 966.433 555.76 972.29 555.76C978.148 555.76 978.148 556.51 984.021 556.51C989.895 556.51 989.879 556.219 995.752 556.219C1001.63 556.219 1001.61 555.76 1007.48 555.76C1013.36 555.76 1013.34 555.79 1019.21 555.79C1025.09 555.79 1025.09 556.326 1030.95 556.326C1036.8 556.326 1036.8 556.158 1042.68 556.158C1048.55 556.158 1048.53 555.76 1054.41 555.76C1060.28 555.76 1060.26 556.097 1066.14 556.097C1072.01 556.097 1072 556.494 1077.87 556.494C1083.74 556.494 1083.73 555.959 1089.6 555.959C1095.47 555.959 1095.46 556.372 1101.33 556.372C1107.2 556.372 1107.19 556.02 1113.06 556.02C1118.94 556.02 1118.94 555.867 1124.79 555.867C1130.65 555.867 1130.65 556.081 1136.52 556.081C1142.4 556.081 1142.38 555.974 1148.25 555.974C1154.13 555.974 1154.11 556.097 1159.99 556.097C1165.86 556.097 1165.84 556.158 1171.72 556.158C1177.59 556.158 1177.57 556.449 1183.45 556.449C1189.32 556.449 1189.31 555.943 1195.18 555.943C1201.05 555.943 1201.05 556.28 1206.91 556.28C1212.77 556.28 1212.78 556.188 1218.64 556.188C1224.5 556.188 1224.5 556.02 1230.37 556.02C1236.25 556.02 1236.23 555.882 1242.1 555.882C1247.98 555.882 1247.96 555.775 1253.83 555.775C1259.71 555.775 1259.69 556.188 1265.56 556.188C1271.44 556.188 1271.44 556.066 1277.3 556.066C1283.15 556.066 1283.17 555.882 1289.03 555.882C1294.88 555.882 1294.88 555.928 1300.76 555.928C1306.63 555.928 1306.61 556.081 1312.49 556.081C1318.36 556.081 1318.35 555.744 1324.22 555.744C1330.09 555.744 1330.09 555.943 1335.95 555.943C1341.81 555.943 1341.82 555.959 1347.68 555.959C1353.54 555.959 1353.54 556.219 1359.41 556.219C1365.29 556.219 1365.27 556.219 1371.14 556.219C1377.02 556.219 1377.02 556.158 1382.87 556.158C1388.73 556.158 1388.75 555.989 1394.6 555.989C1400.46 555.989 1400.48 556.494 1406.34 556.494C1412.19 556.494 1412.19 556.295 1418.07 556.295C1423.94 556.295 1423.94 556.265 1429.8 556.265C1435.66 556.265 1435.67 556.326 1441.53 556.326C1447.39 556.326 1447.4 556.372 1453.26 556.372C1459.12 556.372 1459.13 556.387 1464.99 556.387C1470.85 556.387 1470.86 555.76 1476.72 555.76C1482.58 555.76 1482.6 556.188 1488.45 556.188C1494.31 556.188 1494.33 556.066 1500.18 556.066C1506.04 556.066 1506.06 556.066 1511.91 556.066C1517.77 556.066 1517.79 555.76 1523.65 555.76C1529.5 555.76 1529.52 556.556 1535.38 556.556C1541.23 556.556 1541.25 556.326 1547.11 556.326C1552.96 556.326 1552.98 555.867 1558.84 555.867C1564.7 555.867 1564.71 555.867 1570.57 555.867C1576.43 555.867 1576.44 556.142 1582.3 556.142C1588.16 556.142 1588.17 555.76 1594.03 555.76C1599.89 555.76 1599.9 555.714 1605.76 555.714C1611.62 555.714 1611.62 556.051 1617.49 556.051C1623.37 556.051 1623.35 555.913 1629.22 555.913C1635.1 555.913 1635.08 555.867 1640.96 555.867C1646.83 555.867 1646.83 556.372 1652.69 556.372C1658.54 556.372 1658.54 555.79 1664.42 555.79C1670.29 555.79 1670.27 555.729 1676.15 555.729C1682.02 555.729 1682.02 555.913 1687.88 555.913C1693.74 555.913 1693.74 555.943 1699.61 555.943C1705.48 555.943 1705.48 556.25 1711.34 556.25C1717.2 556.25 1717.21 556.066 1723.07 556.066C1728.93 556.066 1728.95 556.418 1734.8 556.418C1740.66 556.418 1740.68 555.913 1746.53 555.913C1752.39 555.913 1752.41 555.989 1758.26 555.989C1764.12 555.989 1764.14 556.051 1770 556.051C1775.85 556.051 1775.87 556.25 1781.73 556.25C1787.58 556.25 1787.6 555.852 1793.47 555.852C1799.35 555.852 1799.35 556.418 1805.2 556.418C1811.06 556.418 1811.08 555.821 1816.94 555.821C1822.79 555.821 1822.81 555.882 1828.68 555.882C1834.56 555.882 1834.56 556.142 1840.43 556.142C1846.3 556.142 1846.3 556.142 1852.16 556.142C1858.02 556.142 1858.03 555.928 1863.89 555.928C1869.75 555.928 1869.77 556.158 1875.62 556.158C1881.48 556.158 1881.5 555.79 1887.35 555.79C1893.21 555.79 1893.23 556.51 1899.1 556.51C1904.97 556.51 1904.97 555.668 1910.83 555.668C1916.69 555.668 1916.71 556.28 1922.58 556.28C1928.45 556.28 1928.45 556.142 1934.33 556.142C1940.2 556.142 1941.6 559.693 1945.76 555.79C1949.91 551.918 1946.42 550.587 1946.42 545.093C1946.42 539.598 1946.37 539.598 1946.37 534.119C1946.37 528.64 1945.62 528.625 1945.62 523.146C1945.62 517.667 1946.35 517.652 1946.35 512.157C1946.35 506.663 1945.8 506.663 1945.8 501.169C1945.8 495.675 1945.73 495.675 1945.73 490.196C1945.73 484.717 1946.19 484.701 1946.19 479.207C1946.19 473.713 1945.75 473.713 1945.75 468.218C1945.75 462.724 1945.98 462.724 1945.98 457.23C1945.98 451.735 1946.27 451.735 1946.27 446.241C1946.27 440.747 1946.46 440.747 1946.46 435.253C1946.46 429.758 1945.85 429.758 1945.85 424.264C1945.85 418.77 1945.98 418.77 1945.98 413.275C1945.98 407.781 1945.85 407.781 1945.85 402.287C1945.85 396.792 1946.32 396.792 1946.32 391.298C1946.32 385.804 1946.19 385.804 1946.19 380.31C1946.19 374.815 1945.75 374.815 1945.75 369.321C1945.75 363.827 1946.25 363.827 1946.25 358.332C1946.25 352.838 1945.76 352.838 1945.76 347.344C1945.76 341.849 1945.72 341.849 1945.72 336.355C1945.72 330.861 1945.91 330.861 1945.91 325.367C1945.91 319.872 1946.01 319.872 1946.01 314.378C1946.01 308.884 1945.6 308.884 1945.6 303.389C1945.6 297.895 1946.3 297.895 1946.3 292.401C1946.3 286.906 1946.35 286.907 1946.35 281.412C1946.35 275.918 1945.78 275.918 1945.78 270.424C1945.78 264.929 1946.37 264.929 1946.37 259.435C1946.37 253.941 1945.85 253.941 1945.85 248.431C1945.85 242.922 1945.91 242.922 1945.91 237.427C1945.91 231.933 1950.39 230.127 1946.24 226.24C1942.09 222.337 1940.17 226.53 1934.31 226.53C1928.45 226.53 1928.45 226.561 1922.58 226.561C1916.72 226.561 1916.72 226.867 1910.85 226.867C1904.99 226.867 1904.99 226.117 1899.12 226.117C1893.24 226.117 1893.26 226.622 1887.39 226.622C1881.53 226.622 1881.53 226.837 1875.66 226.837C1869.8 226.837 1869.8 226.255 1863.92 226.255C1858.07 226.255 1858.07 226.408 1852.19 226.408C1846.34 226.408 1846.34 226.01 1840.46 226.01C1834.61 226.01 1834.61 226.224 1828.73 226.224C1822.87 226.224 1822.87 226.454 1817 226.454C1811.14 226.454 1811.14 226.699 1805.27 226.699C1799.4 226.699 1799.41 226.408 1793.54 226.408C1787.68 226.408 1787.68 226.837 1781.81 226.837C1775.95 226.837 1775.95 226.163 1770.08 226.163C1764.22 226.163 1764.22 226.224 1758.35 226.224C1752.49 226.224 1752.49 226.255 1746.62 226.255C1740.76 226.255 1740.76 226.423 1734.88 226.423C1729.03 226.423 1729.03 226.5 1723.15 226.5C1717.3 226.5 1717.3 226.347 1711.42 226.347C1705.55 226.347 1705.56 226.347 1699.69 226.347C1693.83 226.347 1693.83 226.454 1687.96 226.454C1682.1 226.454 1682.1 226.53 1676.23 226.53C1670.36 226.53 1670.37 226.224 1664.5 226.224C1658.62 226.224 1658.64 225.995 1652.77 225.995C1646.91 225.995 1646.91 226.668 1641.04 226.668C1635.18 226.668 1635.18 226.485 1629.31 226.485C1623.45 226.485 1623.45 226.24 1617.57 226.24C1611.7 226.24 1611.72 226.331 1605.84 226.331C1599.99 226.331 1599.99 226.209 1594.11 226.209C1588.26 226.209 1588.26 226.439 1582.38 226.439C1576.51 226.439 1576.52 226.377 1570.65 226.377C1564.78 226.377 1564.79 226.423 1558.92 226.423C1553.05 226.423 1553.06 226.087 1547.19 226.087C1541.33 226.087 1541.33 226.423 1535.46 226.423C1529.6 226.423 1529.6 226.653 1523.73 226.653C1517.87 226.653 1517.87 226.102 1512 226.102C1506.14 226.102 1506.14 226.485 1500.26 226.485C1494.41 226.485 1494.41 226.576 1488.53 226.576C1482.68 226.576 1482.68 226.056 1476.8 226.056C1470.95 226.056 1470.95 226.439 1465.07 226.439C1459.2 226.439 1459.21 226.408 1453.34 226.408C1447.47 226.408 1447.48 226.148 1441.61 226.148C1435.74 226.148 1435.75 226.806 1429.88 226.806C1424.02 226.806 1424.02 226.209 1418.15 226.209C1412.29 226.209 1412.29 226.362 1406.42 226.362C1400.56 226.362 1400.56 226.852 1394.69 226.852C1388.83 226.852 1388.83 226.393 1382.96 226.393C1377.1 226.393 1377.1 226.745 1371.22 226.745C1365.37 226.745 1365.37 226.668 1359.49 226.668C1353.62 226.668 1353.64 226.5 1347.76 226.5C1341.91 226.5 1341.91 226.224 1336.03 226.224C1330.17 226.224 1330.17 226.485 1324.3 226.485C1318.43 226.485 1318.44 226.439 1312.57 226.439C1306.71 226.439 1306.71 226.653 1300.84 226.653C1294.98 226.653 1294.98 226.133 1289.11 226.133C1283.23 226.133 1283.25 226.117 1277.38 226.117C1271.52 226.117 1271.52 226.347 1265.65 226.347C1259.77 226.347 1259.79 226.178 1253.91 226.178C1248.04 226.178 1248.04 226.561 1242.18 226.561C1236.33 226.561 1236.33 226.377 1230.45 226.377C1224.6 226.377 1224.6 226.178 1218.72 226.178C1212.86 226.178 1212.86 226.286 1206.99 226.286C1201.13 226.286 1201.13 226.025 1195.26 226.025C1189.4 226.025 1189.4 226.638 1183.53 226.638C1177.67 226.638 1177.67 226.454 1171.8 226.454C1165.92 226.454 1165.92 226.699 1160.07 226.699C1154.21 226.699 1154.21 226.163 1148.34 226.163C1144.43 226.163 1140.52 226.163 1136.61 226.163C1130.75 226.163 1130.75 226.025 1124.87 226.025C1119.02 226.025 1119.02 226.515 1113.16 226.515C1107.3 226.515 1107.3 226.576 1101.44 226.576C1095.59 226.576 1095.59 226.653 1089.73 226.653C1085.83 226.653 1081.92 226.653 1078.02 226.653C1072.16 226.653 1072.16 226.699 1066.3 226.699C1060.44 226.699 1060.44 226.377 1054.57 226.377C1048.7 226.377 1048.71 226.622 1042.84 226.622C1036.97 226.622 1036.98 226.714 1031.11 226.714C1025.23 226.714 1025.23 226.683 1019.38 226.683C1013.52 226.683 1013.52 226.5 1007.65 226.5C1001.79 226.5 1001.79 226.224 995.915 226.224C990.058 226.224 990.058 226.668 984.184 226.668C978.327 226.668 978.327 226.331 972.453 226.331C966.596 226.331 966.596 226.469 960.738 226.469C954.881 226.469 954.881 226.224 949.008 226.224C943.15 226.224 943.15 226.469 937.277 226.469C931.419 226.469 931.419 226.347 925.546 226.347C919.672 226.347 919.688 226.087 913.815 226.087C907.941 226.087 907.941 226.485 902.084 226.485C896.226 226.485 896.226 226.301 890.353 226.301C884.495 226.301 884.495 226.27 878.622 226.27C872.764 226.27 872.764 226.668 866.891 226.668C861.033 226.668 861.033 226.163 855.16 226.163C849.286 226.163 849.302 226.515 843.429 226.515C837.555 226.515 837.571 226.133 831.698 226.133C825.841 226.133 825.841 226.607 819.967 226.607C814.093 226.607 814.093 226.469 808.236 226.469C802.379 226.469 802.379 225.995 796.505 225.995C790.648 225.995 790.648 225.949 784.774 225.949C778.901 225.949 778.917 226.653 773.043 226.653C767.17 226.653 767.186 225.995 761.312 225.995C755.439 225.995 755.455 226.775 749.581 226.775C743.724 226.775 743.724 226.087 737.85 226.087C731.977 226.087 731.977 226.056 726.119 226.056C720.246 226.056 720.246 226.224 714.388 226.224C708.531 226.224 708.531 226.301 702.657 226.301C696.8 226.301 696.8 226.469 690.926 226.469C685.069 226.469 685.069 226.331 679.195 226.331C673.322 226.331 673.338 226.377 667.465 226.377C661.591 226.377 661.591 226.454 655.734 226.454C649.876 226.454 649.86 225.934 644.003 225.934C638.145 225.934 638.145 226.714 632.272 226.714C626.414 226.714 626.414 226.53 620.541 226.53C614.683 226.53 614.683 226.148 608.81 226.148C602.936 226.148 602.936 226.439 597.079 226.439C591.205 226.439 591.205 226.209 585.348 226.209C579.49 226.209 579.49 226.592 573.617 226.592C567.76 226.592 567.76 225.949 561.886 225.949C556.012 225.949 556.012 226.27 550.155 226.27C544.298 226.27 544.281 226.668 538.424 226.668C532.55 226.668 532.55 226.087 526.693 226.087C520.836 226.087 520.836 226.714 514.962 226.714C509.088 226.714 509.088 226.729 503.231 226.729C497.358 226.729 497.358 226.668 491.5 226.668C485.627 226.668 485.627 226.576 479.769 226.576C473.896 226.576 473.896 225.934 468.038 225.934C462.165 225.934 462.165 226.347 456.307 226.347C450.434 226.347 450.434 226.745 444.576 226.745C438.703 226.745 438.703 226.622 432.845 226.622C426.988 226.622 426.972 226.5 421.114 226.5C415.257 226.5 415.241 226.653 409.383 226.653C403.51 226.653 403.51 226.025 397.652 226.025C391.795 226.025 391.779 226.622 385.922 226.622C380.048 226.622 380.048 226.117 374.191 226.117C368.333 226.117 368.317 226.469 362.46 226.469C356.586 226.469 356.586 226.622 350.729 226.622C344.855 226.622 344.855 226.041 338.998 226.041C333.124 226.041 333.124 226.347 327.267 226.347C321.409 226.347 321.409 226.224 315.536 226.224C309.678 226.224 309.678 225.949 303.805 225.949C297.931 225.949 297.947 226.775 292.074 226.775C286.2 226.775 286.2 226.133 280.343 226.133C274.486 226.133 274.486 226.775 268.612 226.775C262.755 226.775 262.755 226.745 256.881 226.745C251.007 226.745 251.007 226.347 245.15 226.347C241.245 226.347 237.335 226.347 233.419 226.347C227.545 226.347 227.545 226.087 221.688 226.087C215.814 226.087 215.814 226.362 209.957 226.362C204.084 226.362 204.084 225.918 198.226 225.918C192.353 225.918 192.353 226.255 186.495 226.255C180.622 226.255 180.622 226.331 174.764 226.331C170.849 226.331 166.938 226.331 163.033 226.331C157.16 226.331 157.16 225.995 151.302 225.995C145.445 225.995 145.429 225.918 139.555 225.918C133.681 225.918 133.681 226.515 127.824 226.515C121.951 226.515 121.951 225.903 116.093 225.903C112.177 225.903 108.262 225.903 104.346 225.903C98.4724 225.903 98.4723 226.025 92.5987 226.025C86.7251 226.025 86.7251 226.607 80.8678 226.607C74.9942 226.607 74.9942 226.469 69.1368 226.469C63.2795 226.469 63.2632 226.469 57.4059 226.469C51.5322 226.469 51.5323 226.194 45.6749 226.194C39.8176 226.194 39.8013 226.683 33.9277 226.683C28.0541 226.683 28.0541 226.515 22.1967 226.515C16.3231 226.515 16.3231 226.362 10.4495 226.362C4.57587 226.362 4.49452 227.234 -1.23266 226.025C-7.49676 224.709 -9.15634 222.184 -13.3216 226.087L-13.289 226.224Z" fill="var(--fill-0, #A2C794)"/>
<path id="Vector_7" d="M263.093 289.937C342.095 360.567 416.58 436.142 493.515 509C513.265 527.695 533.123 546.268 553.394 564.399C559.242 569.634 567.938 561.026 562.059 555.761C483.058 485.131 408.573 409.556 331.638 336.698C311.888 318.003 292.03 299.43 271.759 281.299C265.911 276.064 257.214 284.672 263.093 289.937Z" fill="var(--fill-0, #E1E8DD)"/>
<path id="Vector_8" d="M424.71 293.92C503.711 364.55 578.196 440.125 655.131 512.983C674.881 531.679 694.739 550.252 715.01 568.382C720.858 573.617 729.555 565.01 723.675 559.744C644.674 489.114 570.189 413.54 493.254 340.681C473.504 321.986 453.646 303.413 433.375 285.282C427.527 280.048 418.831 288.655 424.71 293.92Z" fill="var(--fill-0, #E1E8DD)"/>
<path id="Vector_9" d="M272.879 293.602C296.793 293.138 320.724 293.234 344.639 293.202C389.98 293.138 435.338 293.202 480.679 293.282C541.974 293.378 603.269 293.538 664.565 293.713C736.805 293.921 809.046 294.145 881.287 294.384C959.631 294.64 1037.99 294.911 1116.33 295.199C1195.33 295.47 1274.32 295.758 1353.29 296.014C1427.7 296.269 1502.12 296.509 1576.53 296.732C1640.94 296.924 1705.34 297.1 1769.75 297.228C1819.31 297.323 1868.86 297.419 1918.43 297.403C1948.07 297.403 1977.7 297.435 2007.32 297.132C2010.9 297.1 2014.49 297.052 2018.07 296.988C2026.59 296.828 2026.62 284.049 2018.07 284.209C1994.15 284.672 1970.22 284.576 1946.31 284.608C1900.97 284.672 1855.61 284.608 1810.27 284.528C1748.97 284.432 1687.68 284.273 1626.38 284.097C1554.14 283.889 1481.9 283.666 1409.66 283.426C1331.32 283.17 1252.96 282.899 1174.61 282.611C1095.62 282.34 1016.63 282.052 937.657 281.797C863.243 281.541 788.83 281.301 714.417 281.078C650.004 280.886 585.607 280.71 521.194 280.583C471.641 280.487 422.087 280.391 372.517 280.407C342.881 280.407 313.245 280.375 283.625 280.678C280.043 280.71 276.461 280.758 272.879 280.822C264.355 280.982 264.321 293.761 272.879 293.602Z" fill="var(--fill-0, #E1E8DD)"/>
<path id="Vector_10" d="M357.877 364.825C381.103 364.404 404.346 364.479 427.572 364.449C471.074 364.389 514.575 364.449 558.077 364.525C616.93 364.615 675.783 364.765 734.637 364.93C803.917 365.126 873.198 365.336 942.479 365.562C1017.26 365.802 1092.07 366.058 1166.85 366.314C1241.93 366.569 1317.02 366.825 1392.1 367.08C1463.17 367.321 1534.23 367.546 1605.3 367.757C1667.14 367.937 1728.96 368.103 1790.79 368.238C1838.46 368.328 1886.14 368.418 1933.8 368.403C1962.31 368.403 1990.85 368.418 2019.36 368.148C2022.92 368.118 2026.51 368.073 2030.07 368.013C2038.59 367.862 2038.62 355.835 2030.07 355.985C2006.84 356.406 1983.6 356.331 1960.37 356.361C1916.87 356.421 1873.37 356.361 1829.87 356.286C1771.02 356.195 1712.16 356.045 1653.31 355.88C1584.03 355.684 1514.75 355.474 1445.47 355.248C1370.68 355.008 1295.88 354.752 1221.1 354.497C1146.01 354.241 1070.93 353.985 995.845 353.73C924.774 353.489 853.719 353.264 782.647 353.053C720.81 352.873 658.989 352.707 597.152 352.572C549.489 352.482 501.81 352.392 454.147 352.407C425.632 352.407 397.101 352.392 368.586 352.662C365.022 352.692 361.441 352.738 357.877 352.798C349.355 352.948 349.322 364.976 357.877 364.825Z" fill="var(--fill-0, #E1E8DD)"/>
</g>
<defs>
<clipPath id="clip0_223_944">
<rect width="1948" height="570" fill="white"/>
</clipPath>
</defs>
</svg>
