<svg width="64" height="64" viewBox="0 0 64 64" fill="none" xmlns="http://www.w3.org/2000/svg">
<path d="M53.3333 26.6667C53.3333 39.9814 38.5627 53.848 33.6027 58.1307C33.1406 58.4782 32.5781 58.666 32 58.666C31.4219 58.666 30.8594 58.4782 30.3973 58.1307C25.4373 53.848 10.6667 39.9814 10.6667 26.6667C10.6667 21.0088 12.9143 15.5825 16.9151 11.5818C20.9158 7.58099 26.3421 5.33337 32 5.33337C37.658 5.33337 43.0842 7.58099 47.085 11.5818C51.0857 15.5825 53.3333 21.0088 53.3333 26.6667Z" stroke="#00A63E" stroke-width="5.33333" stroke-linecap="round" stroke-linejoin="round"/>
<path d="M32 34.6666C36.4183 34.6666 40 31.0849 40 26.6666C40 22.2483 36.4183 18.6666 32 18.6666C27.5817 18.6666 24 22.2483 24 26.6666C24 31.0849 27.5817 34.6666 32 34.6666Z" stroke="#00A63E" stroke-width="5.33333" stroke-linecap="round" stroke-linejoin="round"/>
</svg>
