<svg preserveAspectRatio="none" width="100%" height="100%" overflow="visible" style="display: block;" viewBox="0 0 75.7126 73.4104" fill="none" xmlns="http://www.w3.org/2000/svg">
<g id="Group">
<path id="Vector" d="M68.6563 45.8125C69.4583 51.3124 68.5117 55.9853 65.3734 60.5647C62.2352 65.1488 56.6022 69.8777 51.6313 69.8824C50.0971 69.0319 48.6982 67.9385 47.5091 66.6535C52.1162 66.317 57.4555 61.9619 60.4725 57.6395C63.4896 53.3124 65.4714 47.6302 64.3569 42.4013C65.9284 43.4807 67.3786 44.6069 68.6563 45.8078V45.8125Z" fill="var(--fill-0, #2A3300)"/>
<g id="Group_2">
<path id="Vector_2" d="M73.6412 53.4059C75.7815 60.5367 71.2537 68.8731 64.2217 71.2702C60.0809 72.6814 55.4458 72.0132 51.6313 69.8824C56.6022 69.8824 62.2352 65.1488 65.3735 60.5647C68.5118 55.9806 69.4584 51.3124 68.6563 45.8124C71.0019 48.018 72.7645 50.4853 73.6458 53.4059H73.6412Z" fill="var(--fill-0, #EFE8E3)"/>
<path id="Vector_3" d="M64.3569 42.406C65.4761 47.6349 63.4896 53.3171 60.4726 57.6442C57.4509 61.9666 52.1163 66.3217 47.5091 66.6535C46.6325 65.7049 45.8724 64.6441 45.2662 63.4946C47.0708 62.9385 48.9407 62.0974 50.7173 61.0086C53.2261 59.4713 55.567 57.4246 57.3296 54.9526C58.8778 52.7891 59.9689 50.3078 60.5658 47.7143C61.1347 45.2471 61.2513 42.677 60.8736 40.1723C62.086 40.9013 63.2518 41.6443 64.3569 42.4013V42.406Z" fill="var(--fill-0, #EFE8E3)"/>
</g>
<path id="Vector_4" d="M60.8736 40.1723C61.2513 42.677 61.1347 45.247 60.5658 47.7143L54.2846 41.4153C55.4364 38.6303 56.3037 35.7237 56.8586 32.7565C58.183 35.2331 59.5213 37.7097 60.8736 40.1723Z" fill="var(--fill-0, white)"/>
<path id="Vector_5" d="M60.5611 47.7143C59.9642 50.3077 58.8731 52.7843 57.3249 54.9526L49.738 49.7984C51.538 47.1722 53.0675 44.3592 54.2752 41.4152L60.5564 47.7143H60.5611Z" fill="var(--fill-0, white)"/>
<path id="Vector_6" d="M49.7428 49.7984L57.3296 54.9526C55.567 57.4245 53.2261 59.4666 50.7173 61.0086L43.2564 57.3544C45.6905 55.0881 47.8682 52.546 49.7474 49.7984H49.7428Z" fill="var(--fill-0, white)"/>
<path id="Vector_7" d="M56.8586 32.7564C56.2991 35.7237 55.4317 38.6255 54.2846 41.4152L49.0386 36.1583L48.5863 28.2611L54.8349 28.948C55.5063 30.219 56.1872 31.4901 56.8633 32.7564H56.8586Z" fill="var(--fill-0, white)"/>
<path id="Vector_8" d="M49.0339 36.1583L54.2799 41.4152C53.0675 44.3592 51.538 47.1722 49.7427 49.7984L43.289 45.4152L42.389 36.8826L49.0339 36.1629V36.1583Z" fill="var(--fill-0, white)"/>
<path id="Vector_9" d="M50.7127 61.0039C48.936 62.0974 47.0661 62.9385 45.2615 63.4946C42.4636 63.06 39.6704 62.6581 36.8726 62.2749C39.1482 60.8404 41.2792 59.1815 43.247 57.3497L50.708 60.9992L50.7127 61.0039Z" fill="var(--fill-0, white)"/>
<path id="Vector_10" d="M43.289 45.4152L49.7427 49.7984C47.8635 52.546 45.6858 55.0834 43.2517 57.3544L36.0519 53.8264L34.1726 47.4152L43.2936 45.4152H43.289Z" fill="var(--fill-0, white)"/>
<path id="Vector_11" d="M36.0472 53.8218L43.247 57.3498C41.2792 59.1815 39.1481 60.8357 36.8725 62.275C35.0446 62.0226 33.212 61.7797 31.3794 61.546L29.2997 55.8872L36.0472 53.8264V53.8218Z" fill="var(--fill-0, white)"/>
<g id="Group_3">
<path id="Vector_12" d="M42.389 36.8779L43.289 45.4106L34.1679 47.4106L36.0472 53.8218L29.2997 55.8825C23.7552 54.9339 17.7352 54.3171 12.1907 53.3685L11.1415 53.0788C9.29961 50.5975 7.46235 48.1162 6.73957 45.3545C11.3234 44.1256 15.9026 42.9013 20.3791 41.3592C19.3346 36.5228 18.2947 31.6817 17.1849 26.7799C21.8387 26.3733 26.5065 26.121 31.0949 25.5649C30.9877 20.1771 31.1136 14.7799 32.0975 9.6024C34.9513 10.1071 37.7399 10.9856 40.0947 12.0463C39.8709 8.68184 39.9175 5.30336 40.4911 2.01366C45.3827 10.9201 50.0598 19.9528 54.8255 28.9434L48.5769 28.2565L49.0292 36.1536L42.3843 36.8733L42.389 36.8779Z" fill="var(--fill-0, #EFE8E3)"/>
<path id="Vector_13" d="M29.3043 55.8872L31.3841 61.546C21.6662 60.2983 11.897 59.261 1.88996 58.1442C5.00491 56.4713 8.1152 54.8077 11.1462 53.0788L12.1954 53.3685C17.7398 54.3218 23.7599 54.9386 29.3043 55.8825V55.8872Z" fill="var(--fill-0, #EFE8E3)"/>
</g>
<path id="Vector_14" d="M59.5679 73.4104C53.1981 73.4104 46.7164 69.7936 43.6527 64.0086C43.4242 63.574 43.3962 63.06 43.5874 62.6067C43.774 62.1535 44.1563 61.803 44.6226 61.6628C49.0852 60.289 53.2867 57.317 55.8561 53.7189C58.6446 49.8171 59.829 44.8592 59.1156 40.1162C59.0223 39.4854 59.2974 38.8545 59.8243 38.4994C60.3559 38.1443 61.0414 38.1256 61.587 38.4527C67.1734 41.8031 73.1468 46.1115 75.11 52.6535C77.4882 60.56 72.5873 69.8777 64.6227 72.588C62.9906 73.1441 61.2746 73.4104 59.5539 73.4104H59.5679ZM47.5884 64.1021C51.1743 68.9992 57.9498 71.3824 63.5735 69.4665C69.822 67.3403 73.8183 59.7797 71.9671 53.6068C70.6194 49.1208 66.7491 45.733 62.6176 42.99C62.5849 47.49 61.1673 51.9619 58.542 55.6395C55.954 59.261 51.9624 62.3264 47.593 64.1021H47.5884Z" fill="var(--fill-0, #2A3300)"/>
<path id="Vector_15" d="M45.1076 64.8871C45.0237 64.8871 44.9397 64.8824 44.8558 64.8684C32.4007 62.9385 20.1787 61.588 7.23389 60.1581L1.46564 59.5179C0.747519 59.4385 0.169294 58.9011 0.0294008 58.1909C-0.105829 57.4806 0.234575 56.7656 0.868757 56.4245C3.38217 55.0787 5.96087 53.6909 8.48827 52.2797C6.9681 50.1722 5.55984 47.9619 4.91633 45.4806C4.68784 44.6021 5.21011 43.705 6.08677 43.4713C10.1157 42.3919 14.2565 41.2844 18.2528 39.9713C17.3248 35.663 16.3689 31.2377 15.371 26.8219C15.2638 26.3593 15.371 25.8686 15.6461 25.4854C15.9259 25.1023 16.3596 24.8546 16.8306 24.8125C18.4207 24.6724 20.0061 24.5509 21.5962 24.4294C24.1143 24.2378 26.7023 24.0415 29.2391 23.7705C29.1878 19.2191 29.323 14.0369 30.2976 8.93881C30.4655 8.05097 31.3142 7.46686 32.2001 7.62573C34.2333 7.98555 36.257 8.5276 38.1689 9.21451C38.1083 6.35471 38.2808 3.76594 38.7005 1.36876C38.8217 0.677178 39.3627 0.139798 40.0528 0.0229767C40.7383 -0.0938451 41.4284 0.242602 41.7642 0.854747C45.2475 7.19583 48.6702 13.7005 51.9857 19.9901C55.2918 26.2705 58.7099 32.7611 62.1792 39.0788C62.6176 39.8779 62.3284 40.8825 61.5311 41.3218C60.7337 41.761 59.7311 41.4713 59.2928 40.6723C55.8094 34.3312 52.382 27.8265 49.0712 21.5322C46.5905 16.8173 44.0444 11.9808 41.4611 7.19116C41.4331 8.579 41.4704 10.0416 41.573 11.593C41.6103 12.1724 41.3445 12.7285 40.8688 13.0556C40.3932 13.3874 39.7823 13.4435 39.2554 13.2051C37.4275 12.3827 35.3431 11.6911 33.2493 11.2098C32.5032 16.0556 32.4753 20.9714 32.5545 25.2144C32.5732 26.0602 31.9437 26.7845 31.1043 26.8826C28.0313 27.2518 24.8884 27.4948 21.8434 27.7237C20.8921 27.7938 19.9455 27.8686 18.9942 27.9434C19.9548 32.2518 20.8781 36.5461 21.7781 40.719C21.9553 41.5367 21.4937 42.3545 20.7056 42.6255C16.7373 43.99 12.6478 45.1255 8.64215 46.2003C9.46286 48.0881 10.8198 49.9105 12.2327 51.8171C12.5125 52.1956 12.6198 52.6769 12.5219 53.1395C12.4239 53.6021 12.1348 53.9993 11.7245 54.2329C10.1903 55.1068 8.63282 55.9666 7.07535 56.817L7.58362 56.8731C20.561 58.3077 32.8203 59.6628 45.3454 61.602C46.2454 61.7422 46.8609 62.5833 46.721 63.4852C46.5951 64.2983 45.8957 64.8824 45.0983 64.8824L45.1076 64.8871Z" fill="var(--fill-0, #2A3300)"/>
<path id="Vector_16" d="M15.5342 52.6956C19.4652 52.8077 23.3636 53.2329 27.2246 54.004C28.5116 54.275 29.794 54.5974 31.0484 55.0554C31.3468 55.1628 31.5007 55.4946 31.3934 55.7984C31.3095 56.032 31.0857 56.1769 30.8525 56.1769C28.2225 56.1675 25.6392 55.8918 23.0418 55.5227C20.4398 55.1301 17.8425 54.6675 15.3384 53.8171C14.7275 53.6114 14.8954 52.6769 15.5342 52.6956Z" fill="var(--fill-0, #2A3300)"/>
<path id="Vector_17" d="M24.5573 41.976C27.579 42.6209 30.4002 43.8732 33.0675 45.3966C33.9442 45.9199 34.8068 46.476 35.6089 47.1582C35.856 47.3685 35.8887 47.7424 35.6788 47.99C35.5389 48.1582 35.3198 48.2237 35.1193 48.1863C34.0794 48.004 33.1001 47.7003 32.1349 47.3545C29.2624 46.2797 26.4972 44.9153 24.0677 43.0041C23.5967 42.6396 23.9884 41.8358 24.5573 41.976Z" fill="var(--fill-0, #2A3300)"/>
<path id="Vector_18" d="M34.1773 27.8826C37.6093 30.6209 40.7383 33.7798 43.2377 37.4059C43.5921 37.9386 42.8973 38.5741 42.3983 38.1769C39.0036 35.3966 35.7954 32.3172 33.3379 28.6536C32.9929 28.1209 33.6783 27.4948 34.1773 27.8826Z" fill="var(--fill-0, #2A3300)"/>
<path id="Vector_19" d="M42.3797 16.0416C45.3314 20.0883 47.4345 24.691 48.9407 29.4574C49.1178 30.0555 48.3018 30.4714 47.9288 29.9761C45.6438 26.9761 44.0491 23.5555 42.6175 20.0929C42.1512 18.9387 41.7175 17.7752 41.3678 16.5602C41.1859 15.9621 42.0066 15.5462 42.3797 16.0416Z" fill="var(--fill-0, #2A3300)"/>
<path id="Vector_20" d="M31.1976 62.7283C30.61 62.7283 30.0598 62.3684 29.8453 61.7843L27.7609 56.1161C27.6256 55.7423 27.6443 55.3311 27.8215 54.976C27.9987 54.6208 28.3111 54.3545 28.6888 54.2377L34.084 52.5835L32.6012 47.5321C32.4892 47.1489 32.5405 46.733 32.7457 46.3872C32.9509 46.0414 33.2866 45.7984 33.6783 45.7143L41.559 43.9854L40.7942 36.7191C40.7103 35.9293 41.2839 35.2191 42.0719 35.1303L47.3692 34.5555L46.9915 28.0182C46.9682 27.5929 47.1314 27.1817 47.4391 26.8873C47.7469 26.593 48.1666 26.4528 48.5863 26.4995L54.8488 27.1864C55.6415 27.2752 56.2104 27.9855 56.1265 28.7799C56.0379 29.5742 55.3245 30.1397 54.5364 30.0602L49.9665 29.5602L50.3209 35.7658C50.3629 36.5321 49.7987 37.2004 49.0386 37.2845L43.8066 37.8499L44.5574 44.9667C44.6366 45.7003 44.1517 46.3732 43.4335 46.5274L35.8047 48.2003L37.2549 53.1349C37.4788 53.8965 37.0498 54.6909 36.2943 54.9246L30.9924 56.546L32.5499 60.7797C32.825 61.5273 32.4426 62.3591 31.6965 62.6348C31.5333 62.6955 31.3654 62.7236 31.1976 62.7236V62.7283Z" fill="var(--fill-0, #2A3300)"/>
<path id="Vector_21" d="M57.1944 56.3263C56.8773 56.3263 56.5555 56.2329 56.2711 56.0413L42.2025 46.4853C41.4518 45.9759 41.2512 44.9479 41.7642 44.1956C42.2725 43.4432 43.2983 43.2423 44.0491 43.7563L58.1177 53.3123C58.8684 53.8217 59.0689 54.8497 58.556 55.602C58.2389 56.074 57.7213 56.3263 57.1897 56.3263H57.1944Z" fill="var(--fill-0, #2A3300)"/>
<path id="Vector_22" d="M60.4399 49.0741C60.0202 49.0741 59.5959 48.9152 59.2741 48.5928L47.7236 37.0181C47.0801 36.3732 47.0801 35.3312 47.7236 34.6863C48.3671 34.0415 49.407 34.0415 50.0505 34.6863L61.601 46.261C62.2445 46.9059 62.2445 47.9479 61.601 48.5928C61.2793 48.9152 60.8596 49.0741 60.4352 49.0741H60.4399Z" fill="var(--fill-0, #2A3300)"/>
<path id="Vector_23" d="M50.5681 62.3918C50.3256 62.3918 50.0785 62.3357 49.8453 62.2235L35.1519 55.0273C34.3358 54.6255 33.9954 53.6395 34.3964 52.8217C34.7975 52.004 35.7814 51.6629 36.5974 52.0647L51.2909 59.2609C52.1069 59.6628 52.4473 60.6488 52.0463 61.4665C51.7618 62.0506 51.1743 62.3918 50.5681 62.3918Z" fill="var(--fill-0, #2A3300)"/>
<path id="Vector_24" d="M36.7047 63.6628C36.1591 63.6628 35.6229 63.3918 35.3104 62.8918C34.8255 62.1207 35.0539 61.102 35.8234 60.6161C45.7231 54.3544 52.9323 43.7096 55.1053 32.1349C55.2732 31.2377 56.1312 30.649 57.0265 30.8172C57.9218 30.9854 58.5094 31.8499 58.3415 32.7424C56.0006 45.2003 48.2412 56.6628 37.5814 63.4058C37.3062 63.5787 37.0031 63.6628 36.7047 63.6628Z" fill="var(--fill-0, #2A3300)"/>
</g>
</svg>
