<svg width="54" height="55" viewBox="0 0 54 55" fill="none" xmlns="http://www.w3.org/2000/svg">
<path d="M26.5986 46.0567C23.6288 47.3938 20.8435 47.6124 17.7582 46.5812C14.6703 45.5507 11.0993 43.1378 10.2967 40.3378C10.529 39.3365 10.9199 38.3723 11.4526 37.4955C12.3836 40.0372 15.6967 42.3447 18.6177 43.349C21.5413 44.3526 25.0619 44.5548 27.8287 43.0853C27.4734 44.1444 27.0723 45.1428 26.6012 46.056L26.5986 46.0567Z" fill="#2A3300"/>
<path d="M23.1227 50.0872C19.4494 52.4407 14.0236 51.2312 11.5412 47.6548C10.0797 45.5488 9.71026 42.8296 10.297 40.3375C11.097 43.1383 14.6706 45.5504 17.7586 46.5809C20.8465 47.6114 23.6291 47.3935 26.5989 46.0565C25.7337 47.733 24.6272 49.1232 23.1234 50.0898L23.1227 50.0872Z" fill="#EFE8E3"/>
<path d="M27.8262 43.0857C25.0601 44.5578 21.5388 44.353 18.6152 43.3495C15.6935 42.3425 12.3811 40.0377 11.4527 37.4952C11.8461 36.8486 12.3214 36.2496 12.8716 35.7231C13.4753 36.6504 14.2502 37.5686 15.1496 38.3944C16.4195 39.5605 17.9494 40.5501 19.6259 41.1454C21.0941 41.6695 22.6678 41.885 24.2251 41.804C25.7068 41.7274 27.1737 41.3795 28.5241 40.7636C28.3085 41.564 28.0775 42.3405 27.8288 43.085L27.8262 43.0857Z" fill="#EFE8E3"/>
<path d="M28.5241 40.7639C27.1737 41.3798 25.7068 41.7277 24.2251 41.8042L26.7634 37.2514C28.5179 37.4522 30.2952 37.4731 32.0564 37.3082C30.8741 38.453 29.694 39.6056 28.5241 40.7639Z" fill="white"/>
<path d="M24.2244 41.8016C22.6671 41.8827 21.0961 41.6664 19.6252 41.1431L21.3084 36.0388C23.0777 36.6304 24.9089 37.0394 26.762 37.2461L24.2237 41.799L24.2244 41.8016Z" fill="white"/>
<path d="M21.3089 36.0414L19.6258 41.1457C17.9493 40.5503 16.422 39.56 15.1494 38.3946L16.0077 33.6027C17.6763 34.6095 19.4591 35.4274 21.3097 36.044L21.3089 36.0414Z" fill="white"/>
<path d="M32.0563 37.3083C30.2944 37.4705 28.5197 37.4488 26.7633 37.2514L28.881 33.4496L33.2578 31.9238L33.8764 35.5551C33.2683 36.138 32.6617 36.7261 32.057 37.3109L32.0563 37.3083Z" fill="white"/>
<path d="M28.8802 33.4472L26.7625 37.249C24.9086 37.0396 23.0775 36.6306 21.3089 36.0417L22.7399 31.7L27.4027 29.8197L28.8776 33.4479L28.8802 33.4472Z" fill="white"/>
<path d="M15.1515 38.3911C14.2495 37.566 13.4746 36.6478 12.8709 35.7205C12.6655 34.0741 12.4424 32.4356 12.208 30.7975C13.3825 31.8488 14.6601 32.7826 16.0089 33.5965L15.1533 38.3877L15.1515 38.3911Z" fill="white"/>
<path d="M22.7401 31.6998L21.3091 36.0415C19.4585 35.4248 17.6784 34.6062 16.0071 33.6002L16.8362 28.9757L20.1461 26.8851L22.7409 31.7024L22.7401 31.6998Z" fill="white"/>
<path d="M16.8379 28.9722L16.0087 33.5967C14.66 32.7827 13.385 31.8482 12.2078 30.7977C12.0558 29.7271 11.8978 28.6555 11.7345 27.5853L14.5882 25.5028L16.8353 28.973L16.8379 28.9722Z" fill="white"/>
<path d="M27.4052 29.8188L22.7423 31.6991L20.1476 26.8818L16.8377 28.9724L14.5907 25.5022C14.2329 22.2256 13.6116 18.7343 13.2538 15.4577L13.2482 14.8199C14.3498 13.3828 15.4522 11.9482 16.8919 11.0966C18.3221 13.4815 19.7488 15.8646 21.3381 18.1387C23.8951 16.7718 26.4554 15.4068 29.0387 13.9926C30.0167 16.5494 30.9101 19.1388 31.9618 21.6346C34.9803 20.7071 38.0416 19.9095 41.1172 19.6306C41.2921 21.3198 41.2459 23.0324 41.0272 24.5299C42.8868 23.8623 44.7979 23.3449 46.7438 23.1387C42.5127 27.3281 38.176 31.4171 33.8773 35.5491L33.2587 31.9179L28.8819 33.4437L27.4071 29.8154L27.4052 29.8188Z" fill="#EFE8E3"/>
<path d="M14.5887 25.5053L11.735 27.5879C10.874 21.9116 9.88633 16.2402 8.90513 10.4221C10.349 11.908 11.7869 13.3927 13.2488 14.8223L13.2544 15.4601C13.6096 18.7375 14.2309 22.2287 14.5913 25.5046L14.5887 25.5053Z" fill="#EFE8E3"/>
<path d="M9.58621 45.377C8.5611 41.788 9.55584 37.5538 12.3223 34.8966C12.5304 34.698 12.8155 34.5995 13.1017 34.6343C13.3871 34.6664 13.6461 34.8254 13.8001 35.0656C15.2924 37.3589 17.6431 39.2479 20.0839 40.1166C22.7311 41.0598 25.7152 40.9293 28.2728 39.764C28.6132 39.6099 29.013 39.6634 29.2979 39.9032C29.5835 40.1455 29.7043 40.5288 29.6078 40.8888C28.6191 44.5756 27.1529 48.6347 23.7828 50.7936C19.7106 53.406 13.6719 52.1442 10.8631 48.0927C10.2871 47.2626 9.86088 46.3386 9.58396 45.3691L9.58621 45.377ZM12.903 37.1292C10.7209 39.9378 10.4685 44.1389 12.453 46.9992C14.6566 50.1778 19.5597 51.2127 22.7399 49.1762C25.0506 47.6949 26.3365 44.969 27.2172 42.1997C24.6764 42.9055 21.9286 42.8264 19.434 41.939C16.977 41.0637 14.6075 39.3079 12.9038 37.1318L12.903 37.1292Z" fill="#2A3300"/>
<path d="M12.0613 35.858C12.0478 35.8107 12.037 35.7627 12.0314 35.7132C11.1143 28.3848 9.90828 21.2811 8.6307 13.7573L8.0631 10.4042C7.99229 9.9868 8.20202 9.57452 8.57971 9.38139C8.95814 9.19089 9.41576 9.26763 9.71002 9.57005C10.8728 10.7696 12.0698 11.9992 13.2716 13.1962C14.2144 12.0005 15.2331 10.8513 16.5277 10.0894C16.9859 9.81928 17.5754 9.96916 17.8482 10.4255C19.1047 12.5219 20.3951 14.6768 21.7781 16.7171C24.0563 15.5009 26.3958 14.2501 28.7233 12.9772C28.9667 12.8423 29.2604 12.8238 29.5206 12.9171C29.7815 13.0131 29.9909 13.2176 30.0903 13.4762C30.4252 14.3496 30.7488 15.2234 31.0732 16.0997C31.5864 17.4877 32.1135 18.9143 32.6744 20.3C35.2306 19.5386 38.1723 18.7808 41.2016 18.5095C41.7289 18.4612 42.1945 18.8454 42.2476 19.3702C42.3721 20.5736 42.3924 21.8011 42.313 22.9889C43.9146 22.4945 45.401 22.1751 46.8192 22.0258C47.2284 21.9828 47.6182 22.2011 47.7951 22.5712C47.9712 22.9386 47.8927 23.3816 47.6018 23.6693C44.5896 26.6524 41.4754 29.6277 38.4651 32.508C35.4586 35.3816 32.3516 38.352 29.3502 41.3235C28.9705 41.6991 28.3579 41.6979 27.9821 41.3193C27.6063 40.9407 27.6082 40.3292 27.9879 39.9536C31.0001 36.9705 34.1135 33.9925 37.1272 31.1141C39.3846 28.9575 41.6999 26.7446 43.9829 24.5182C43.1964 24.7258 42.3783 24.9822 41.5207 25.2897C41.2002 25.404 40.8441 25.3437 40.5833 25.1283C40.3198 24.9137 40.1899 24.5786 40.2394 24.2433C40.4086 23.081 40.4628 21.7953 40.397 20.5381C37.5466 20.8976 34.7723 21.673 32.3944 22.4005C31.9209 22.5471 31.4115 22.3089 31.2211 21.8518C30.5185 20.1798 29.8758 18.448 29.2568 16.7692C29.0642 16.2445 28.8697 15.7231 28.6745 15.1992C26.4016 16.4338 24.1305 17.6451 21.9242 18.8237C21.492 19.0552 20.9569 18.9267 20.6774 18.5263C19.2699 16.5099 17.972 14.3885 16.7218 12.3045C15.7902 13.0707 14.9817 14.1286 14.1349 15.2315C13.9667 15.4501 13.7127 15.588 13.4363 15.6072C13.1599 15.6265 12.8896 15.5275 12.6919 15.3339C11.9526 14.6101 11.2175 13.871 10.4877 13.1303L10.5379 13.4257C11.8181 20.9686 13.0275 28.0941 13.9505 35.4634C14.0164 35.993 13.6415 36.4752 13.1109 36.5415C12.6325 36.6014 12.1908 36.3013 12.0625 35.852L12.0613 35.858Z" fill="#2A3300"/>
<path d="M14.1714 17.2332C14.7408 19.4662 15.1286 21.7311 15.3155 24.0307C15.3699 24.7995 15.3946 25.5739 15.3385 26.3544C15.326 26.5398 15.1638 26.6799 14.9754 26.6683C14.8302 26.6587 14.7126 26.5559 14.6751 26.4245C14.2571 24.9411 13.9967 23.4412 13.7867 21.9183C13.5891 20.3891 13.4318 18.8512 13.508 17.3034C13.5255 16.9261 14.0791 16.8703 14.1714 17.2332Z" fill="#2A3300"/>
<path d="M21.6631 20.592C21.7861 22.3983 21.5345 24.1894 21.1054 25.9374C20.9516 26.5156 20.7771 27.0912 20.5218 27.6529C20.4431 27.826 20.2377 27.9045 20.0644 27.8261C19.9471 27.7744 19.875 27.6614 19.8638 27.5424C19.7991 26.9272 19.8126 26.3266 19.8521 25.7271C19.9954 23.9356 20.3192 22.158 21.0051 20.4815C21.1347 20.1575 21.6506 20.2489 21.6631 20.592Z" fill="#2A3300"/>
<path d="M31.1523 23.7444C30.1617 26.1189 28.8855 28.3902 27.2446 30.3821C27.0015 30.6675 26.5316 30.3783 26.6751 30.0332C27.6953 27.673 28.9141 25.3698 30.5828 23.3956C30.8274 23.1154 31.2905 23.4009 31.1523 23.7444Z" fill="#2A3300"/>
<path d="M39.1441 26.4602C37.3391 28.7746 35.0841 30.7003 32.641 32.316C32.3325 32.5121 31.9668 32.1192 32.1859 31.8293C33.5085 30.0591 35.1791 28.6101 36.8997 27.2462C37.4749 26.7977 38.0607 26.3661 38.689 25.9735C38.9968 25.7748 39.3632 26.1703 39.1441 26.4602Z" fill="#2A3300"/>
<path d="M11.0392 27.6732C10.9447 27.3421 11.0589 26.9742 11.3534 26.7593L14.2117 24.6727C14.4006 24.5363 14.6353 24.4807 14.8639 24.5234C15.0925 24.566 15.2928 24.6992 15.4195 24.8932L17.2198 27.6669L19.8273 26.0185C20.0252 25.8937 20.2678 25.8557 20.4956 25.9157C20.7235 25.9756 20.9144 26.1257 21.0248 26.3329L23.2673 30.4949L27.2383 28.8946C27.6698 28.7202 28.1623 28.9291 28.3392 29.3588L29.5155 32.2511L33.1381 30.9862C33.374 30.9046 33.6319 30.9304 33.8473 31.0564C34.0627 31.1824 34.2093 31.3964 34.2505 31.6403L34.8713 35.2795C34.9489 35.7404 34.6402 36.1753 34.1791 36.2558C33.7173 36.3337 33.2839 36.0227 33.2018 35.5659L32.7481 32.9106L29.3086 34.109C28.8836 34.256 28.4163 34.0456 28.2466 33.6309L27.086 30.7739L23.1969 32.3422C22.7963 32.505 22.3391 32.34 22.1367 31.9602L19.9663 27.931L17.4194 29.5423C17.0263 29.791 16.5096 29.6771 16.2564 29.2891L14.4895 26.5627L12.3548 28.1215C11.9778 28.3969 11.4476 28.3153 11.1722 27.9393C11.1117 27.8571 11.0689 27.767 11.0419 27.6724L11.0392 27.6732Z" fill="#2A3300"/>
<path d="M18.8299 41.2905C18.7789 41.1118 18.7798 40.9155 18.8419 40.7244L21.9621 31.2597C22.1283 30.7547 22.6752 30.4762 23.1817 30.6442C23.6874 30.8095 23.9657 31.3552 23.7969 31.8609L20.6767 41.3256C20.5106 41.8306 19.9636 42.109 19.4571 41.9411C19.1402 41.8384 18.9147 41.5874 18.8292 41.2878L18.8299 41.2905Z" fill="#2A3300"/>
<path d="M23.4386 41.952C23.371 41.7155 23.3923 41.4508 23.5222 41.2177L28.185 32.8469C28.4448 32.3805 29.0319 32.2128 29.4988 32.4716C29.9657 32.7304 30.1331 33.3163 29.8733 33.7827L25.2104 42.1535C24.9507 42.6198 24.3635 42.7875 23.8966 42.5287C23.6632 42.3993 23.5061 42.1884 23.4378 41.9493L23.4386 41.952Z" fill="#2A3300"/>
<path d="M14.346 38.5335C14.307 38.3968 14.2988 38.2486 14.3245 38.0992L16.0145 28.6621C16.1096 28.1377 16.6104 27.7872 17.1357 27.8815C17.661 27.9759 18.0115 28.4754 17.9164 28.9998L16.2264 38.4369C16.1313 38.9613 15.6305 39.3118 15.1053 39.2175C14.7304 39.1512 14.4436 38.875 14.346 38.5335Z" fill="#2A3300"/>
<path d="M11.3988 30.9266C11.311 30.6192 11.3774 30.2734 11.6089 30.0169C11.9653 29.6196 12.576 29.5844 12.9736 29.9397C18.0949 34.5099 25.2529 36.8588 32.1242 36.2204C32.6568 36.1706 33.1266 36.5593 33.1759 37.0908C33.2252 37.6223 32.8327 38.0925 32.3028 38.1416C24.9068 38.8275 17.1995 36.3002 11.6847 31.3791C11.543 31.252 11.4469 31.0947 11.3988 30.9266Z" fill="#2A3300"/>
</svg>
