<svg width="282" height="139" viewBox="0 0 282 139" fill="none" xmlns="http://www.w3.org/2000/svg">
<path d="M277.039 66C277.039 61.9 275.239 59.2999 267.939 59.2998H198.439L197.771 59.3076C191.028 59.4641 189.339 62.0282 189.339 66L189.345 66.3262C189.454 69.5759 191.246 72.3176 197.771 72.4912L198.439 72.5H225.14V81.2998L225.149 81.9141C225.365 88.1289 228.88 90.0996 233.239 90.0996C237.539 90.0996 241.339 88.1998 241.339 81.2998V72.5H267.939L268.607 72.4912C275.133 72.3178 276.925 69.576 277.034 66.3262L277.039 66ZM233.233 50.5049C230.37 52.3864 227.09 53.9855 223.579 55.2998H242.241C238.899 53.9703 235.858 52.3721 233.233 50.5049ZM205.939 9.7998C205.939 7.99973 206.151 5.39996 207.813 3.25195C209.652 0.875569 212.469 3.72902e-05 215.539 0V4L215.109 4.00781C210.784 4.16346 209.939 6.69988 209.939 9.7998L209.954 10.3242C210.102 12.9389 211.414 15.3993 215.539 15.3994H248.539C252.664 15.3994 253.977 12.9389 254.125 10.3242L254.14 9.7998C254.14 6.69979 253.295 4.16332 248.969 4.00781L248.539 4V0C251.609 0 254.427 0.875485 256.266 3.25195C257.928 5.39991 258.14 7.99979 258.14 9.7998L258.135 10.1582C258.087 11.9285 257.67 14.1211 256.226 16H259.839V20H206.239V16H207.853C206.309 13.9921 205.939 11.6256 205.939 9.7998ZM248.539 0V4H215.539V0H248.539ZM281.031 66.46C280.951 68.7862 280.238 71.5004 277.854 73.5781C275.442 75.6802 272.021 76.5 267.939 76.5H245.339V81.2998C245.339 85.4709 244.172 88.9273 241.576 91.2617C239.061 93.5236 235.894 94.0996 233.239 94.0996C230.439 94.0996 227.258 93.4516 224.775 91.1387C222.239 88.7759 221.14 85.3432 221.14 81.2998V76.5H198.439C194.358 76.5 190.936 75.6805 188.523 73.5781C185.981 71.3619 185.339 68.4213 185.339 66C185.339 63.4307 185.904 60.3318 188.556 58.0693C189.646 57.1394 190.933 56.4905 192.372 56.0557C191.096 54.7095 190.14 52.923 189.788 50.6191L189.787 50.6201C189.242 47.1434 189.946 43.8947 192.245 41.417C194.393 39.1019 197.431 38.0167 200.419 37.5479L200.503 37.5361C202.246 37.3001 203.942 37.0571 205.572 36.791C201.626 36.7065 198.396 35.8552 196.134 33.8301C193.612 31.5726 193.14 28.6395 193.14 26.5C193.14 24.1114 193.567 20.9779 196.25 18.7002C198.706 16.615 202.217 16 206.239 16V20L205.545 20.0068C198.547 20.1572 197.14 22.6249 197.14 26.5L197.144 26.7998C197.23 29.7911 198.682 32.6122 205.536 32.791L206.239 32.7998H223.939C220.239 38.5998 210.639 40.2 201.039 41.5C195.939 42.3 192.939 44.9001 193.739 50C194.539 55.2998 200.139 55.8996 203.939 55.5996C214.939 54.5996 226.339 51.0998 233.339 45.5C240.139 51.5 251.94 55.1996 265.14 56.0996C269.014 56.3901 272.232 54.4286 272.884 50.2148L272.939 49.7998C273.618 44.8594 270.166 42.5465 265.132 42.043L264.64 42C256.84 41.4 251.04 39.8994 246.14 36.3994C244.84 35.4994 243.84 34.2997 243.14 32.7998H259.839L260.543 32.791C267.397 32.6121 268.848 29.791 268.935 26.7998L268.939 26.5C268.939 22.625 267.532 20.1573 260.534 20.0068L259.839 20V16C263.861 16 267.372 16.6152 269.828 18.7002C272.511 20.9779 272.939 24.1114 272.939 26.5L272.934 26.9102C272.872 29.0035 272.308 31.7137 269.944 33.8301C267.556 35.968 264.089 36.7998 259.839 36.7998H256.739C259.11 37.3818 261.803 37.7693 264.939 38.0107C267.972 38.2396 271.195 39.0405 273.615 41.0771C276.293 43.3313 277.414 46.6082 276.901 50.3428C276.633 52.6029 275.828 54.6124 274.527 56.2256C275.757 56.6542 276.867 57.2531 277.823 58.0693C280.475 60.3318 281.039 63.4307 281.039 66L281.031 66.46Z" fill="#193A0D"/>
<path d="M121.02 47.0996V73.7998H113.42V47.0996H121.02ZM157.92 13C157.92 6.50955 154.729 4.42942 151.257 4.30566L150.92 4.2998C147.22 4.2998 143.819 6.3 143.819 13V81.2998C143.819 87.8875 146.917 89.9701 150.565 90.0938L150.92 90.0996C154.504 90.0995 157.713 88.2226 157.91 81.9229L157.92 81.2998V47.7998H165.319V81.2998C165.319 87.8875 168.417 89.9701 172.065 90.0938L172.42 90.0996C176.004 90.0995 179.213 88.2226 179.41 81.9229L179.42 81.2998V13C179.42 6.50955 176.229 4.42942 172.757 4.30566L172.42 4.2998C168.72 4.2998 165.319 6.3 165.319 13V34H157.92V13ZM113.42 14C113.42 7.31584 109.76 5.4169 105.713 5.30469L105.319 5.2998C101.02 5.29993 97.7197 7.30021 97.7197 14V80.5996C97.7197 84.5995 98.5197 87.5995 105.819 87.5996H128.62L129.285 87.5908C135.969 87.4111 136.72 84.4746 136.72 80.5996V14C136.72 7.60608 133.623 5.43498 129.52 5.30566L129.12 5.2998C124.82 5.2998 121.02 7.3 121.02 14V33.2998H113.42V14ZM183.42 81.2998L183.408 82.04C183.294 85.7055 182.312 88.7981 180.202 91.0107C177.922 93.4016 174.963 94.0996 172.42 94.0996C169.852 94.0996 166.866 93.4153 164.563 91.0244C163.005 89.406 162.06 87.3157 161.619 84.8789C161.18 87.3118 160.242 89.3959 158.702 91.0107C156.422 93.4016 153.463 94.0996 150.92 94.0996C148.352 94.0996 145.366 93.4153 143.063 91.0244C141.548 89.4506 140.616 87.43 140.16 85.0791C139.82 86.1708 139.275 87.2706 138.396 88.2588C136.123 90.812 132.623 91.5996 128.62 91.5996H105.819C101.816 91.5996 98.3163 90.812 96.0439 88.2588C93.8405 85.7827 93.7197 82.6122 93.7197 80.5996V39.8809C94.1535 38.9541 94.2998 37.8501 94.2998 36.5996C94.2998 35.5844 94.158 34.5799 93.7197 33.6807V21.4805C94.1533 20.5539 94.2998 19.4504 94.2998 18.2002C94.2998 17.1848 94.1582 16.1797 93.7197 15.2803V14C93.7197 10.0524 94.6932 6.65124 97.1055 4.2832C99.5078 1.92494 102.618 1.29986 105.319 1.2998C107.899 1.2998 111.051 1.83961 113.579 4.05176C115.601 5.8208 116.783 8.26545 117.222 11.21C117.659 8.34099 118.816 5.93218 120.783 4.16309C123.278 1.9196 126.425 1.2998 129.12 1.2998C131.865 1.29987 134.963 1.97037 137.348 4.33301C138.721 5.69362 139.628 7.38947 140.152 9.32812C140.617 6.94685 141.581 4.91186 143.127 3.33594C145.425 0.993896 148.383 0.299805 150.92 0.299805C153.432 0.299841 156.362 1.00811 158.638 3.34961C160.201 4.95828 161.17 7.0437 161.62 9.49219C162.072 7.04014 163.045 4.94798 164.627 3.33594C166.925 0.993897 169.883 0.299805 172.42 0.299805C174.932 0.29984 177.862 1.00811 180.138 3.34961C182.403 5.68064 183.42 9.01321 183.42 13V81.2998Z" fill="#193A0D"/>
<path d="M82.4004 73.0996C82.4003 63.6998 78.8002 54.8996 65.1006 54.8994H22.2998C8.60021 55.1996 5.00005 63.6998 5 73.0996C5 82.2544 9.4577 90.7307 21.5205 91.2793L22.1006 91.2998H65.2998C77.6028 91.0092 82.1165 82.9294 82.3867 73.9697L82.4004 73.0996ZM62.2998 73.0996C62.2998 72.9 62.2909 72.7391 62.2812 72.6113C61.9126 72.5323 61.3904 72.4613 60.627 72.3994H26.7734C26.0093 72.4613 25.4868 72.5322 25.1182 72.6113C25.1085 72.7391 25.1006 72.9 25.1006 73.0996L25.1113 73.4863C25.4843 73.5657 26.0098 73.6383 26.7734 73.7002H60.627C61.39 73.6384 61.9152 73.5657 62.2881 73.4863C62.2946 73.3803 62.2998 73.2523 62.2998 73.0996ZM28.9004 27C28.9004 25.391 28.8379 24.2282 28.707 23.3701C28.597 22.6485 28.4617 22.3218 28.4023 22.2051C28.3995 22.204 28.3966 22.2023 28.3936 22.2012C28.1951 22.1255 27.6854 22 26.6006 22C25.5152 22 25.005 22.1255 24.8066 22.2012C24.8037 22.2023 24.8006 22.203 24.7979 22.2041C24.7387 22.3202 24.6034 22.6471 24.4932 23.3701C24.3623 24.2282 24.2998 25.391 24.2998 27L24.3115 28.124C24.3352 29.1675 24.3957 29.9752 24.4932 30.6094C24.5937 31.2632 24.7133 31.5769 24.7715 31.7002C24.981 31.7775 25.503 31.8994 26.6006 31.8994V35.8994L26.1162 35.8936C21.5534 35.767 20.4375 33.7744 20.3125 28.2041L20.2998 27C20.2998 20.3 21.3006 18 26.6006 18L27.085 18.0068C31.9618 18.1482 32.9004 20.5095 32.9004 27L32.8877 28.2041C32.7584 33.9661 31.5689 35.8993 26.6006 35.8994V31.8994C27.6976 31.8994 28.2191 31.7775 28.4287 31.7002C28.4869 31.577 28.6074 31.2634 28.708 30.6094C28.838 29.7638 28.9004 28.61 28.9004 27ZM66.2998 73.0996C66.2998 76.6996 64.6998 77.4002 60.7998 77.7002H26.6006L25.8955 77.6387C22.6193 77.3126 21.1957 76.5293 21.1045 73.4287L21.1006 73.0996C21.1006 69.3998 22.7007 68.6994 26.6006 68.3994H60.7998C64.6997 68.6994 66.2997 69.3998 66.2998 73.0996ZM49.2002 27C49.2002 11.3484 42.4173 4.90173 27.3252 4.7041L26.6006 4.7002C11.0006 4.7002 4 11.1 4 27L4.00488 27.7383C4.21725 42.8483 11.0227 48.9071 25.875 49.0957L26.6006 49.0996C41.8582 49.0995 48.9767 44.0608 49.1953 27.7832L49.2002 27ZM53.1943 27.8262C53.0816 36.3029 51.2034 42.9349 46.4199 47.332C44.7446 48.8719 42.8201 50.0356 40.6895 50.8994H59.9951C58.9679 48.9101 58.5 46.5343 58.5 43.8994V13C58.5 8.89311 59.6874 5.47957 62.2637 3.16309C64.7589 0.919595 67.9058 0.299805 70.6006 0.299805C73.062 0.29986 75.9756 0.827819 78.4014 2.75586C80.0434 4.06108 81.2062 5.80307 81.8926 7.89941H85.2002V11.8994H78.6006L78.5527 11.3594C77.9873 6.07145 74.6067 4.4065 70.9648 4.30469L70.6006 4.2998C66.3006 4.2998 62.5 6.3 62.5 13V43.8994C62.5 50.5994 66.1006 52.7002 70.6006 52.7002C74.9004 52.7001 78.7002 50.7992 78.7002 43.8994V43.0996H85.2002C92.8002 43.0996 94.2998 40.5996 94.2998 36.5996C94.2998 33.4996 92.9861 30.4933 85.9033 30.3086L85.2002 30.2998H78.7002V24.7002H85.2002L85.8945 24.6924C92.6667 24.5469 94.2038 22.2316 94.2959 18.5703L94.2998 18.2002C94.2998 15.0002 92.9002 11.8994 85.2002 11.8994V7.89941C89.45 7.89941 92.9173 8.73116 95.3057 10.8691C96.5402 11.9744 97.2824 13.2424 97.7197 14.499V22.2324C97.2724 23.5676 96.5007 24.8857 95.1895 25.999C94.418 26.654 93.5419 27.1632 92.5791 27.5547C93.5996 27.994 94.5123 28.5593 95.3057 29.2695C96.54 30.3746 97.2824 31.642 97.7197 32.8984V40.6328C97.2724 41.9679 96.5007 43.2861 95.1895 44.3994C92.7335 46.4846 89.2221 47.0996 85.2002 47.0996H82.4414C81.969 49.8472 80.8358 52.1542 78.9375 53.8613C78.7107 54.0653 78.4778 54.2553 78.2412 54.4326C79.7044 55.434 80.9744 56.6359 82.0508 58.0264C85.4436 62.4095 86.4004 68.0019 86.4004 73.0996L86.3857 74.0791C86.2387 78.9894 84.9605 84.0543 81.7324 88.0781C78.1838 92.5014 72.7131 95.1259 65.3945 95.2988L65.3477 95.2998H22.0518L22.0039 95.2988C14.7689 95.1251 9.31524 92.4901 5.75391 88.0918C2.29098 83.8149 1 78.3452 1 73.0996C1.00002 67.9948 1.9598 62.4701 5.36328 58.1221C7.778 55.0372 11.155 52.8764 15.5117 51.7627C12.0988 50.7901 9.12011 49.231 6.68555 46.9033C1.84403 42.2742 2.86212e-05 35.4325 0 27C0 18.5655 1.84496 11.6901 6.66602 7.01562C11.4602 2.36726 18.3756 0.700195 26.6006 0.700195C34.8254 0.700248 41.7401 2.3674 46.5342 7.01562C51.3552 11.6901 53.2002 18.5655 53.2002 27L53.1943 27.8262Z" fill="#193A0D"/>
<path d="M265.139 56.1C251.939 55.2 240.139 51.5 233.339 45.5C226.339 51.1 214.939 54.6 203.939 55.6C200.139 55.9 194.539 55.3 193.739 50C192.939 44.9 195.939 42.3 201.039 41.5C210.639 40.2 220.239 38.6 223.939 32.8H206.239C198.539 32.8 197.139 29.7 197.139 26.5C197.139 22.5 198.639 20 206.239 20H259.839C267.439 20 268.939 22.5 268.939 26.5C268.939 29.7 267.539 32.8 259.839 32.8H243.139C243.839 34.3 244.839 35.5 246.139 36.4C251.039 39.9 256.839 41.4 264.639 42C269.939 42.4 273.639 44.7 272.939 49.8C272.439 54.3 269.139 56.4 265.139 56.1ZM233.239 90.1C228.739 90.1 225.139 88 225.139 81.3V72.5H198.439C191.139 72.5 189.339 69.5 189.339 66C189.339 61.9 191.139 59.3 198.439 59.3H267.939C275.239 59.3 277.039 61.9 277.039 66C277.039 69.5 275.239 72.5 267.939 72.5H241.339V81.3C241.339 88.2 237.539 90.1 233.239 90.1ZM248.539 15.4H215.539C211.139 15.4 209.939 12.6 209.939 9.8C209.939 6.6 210.839 4 215.539 4H248.539C253.239 4 254.139 6.6 254.139 9.8C254.139 12.6 252.939 15.4 248.539 15.4Z" fill="url(#paint0_linear_156_4323)"/>
<path d="M128.62 87.6H105.82C98.5195 87.6 97.7195 84.6 97.7195 80.6V14C97.7195 7.30001 101.02 5.3 105.32 5.3C109.52 5.3 113.42 7.1 113.42 14V33.3H121.02V14C121.02 7.30001 124.82 5.3 129.12 5.3C133.42 5.3 136.72 7.40001 136.72 14V80.6C136.72 84.6 135.92 87.6 128.62 87.6ZM113.42 73.8H121.02V47.1H113.42V73.8ZM150.92 90.1C147.12 90.1 143.82 88.1 143.82 81.3V13C143.82 6.3 147.22 4.3 150.92 4.3C154.52 4.3 157.92 6.3 157.92 13V34H165.32V13C165.32 6.3 168.72 4.3 172.42 4.3C176.02 4.3 179.42 6.3 179.42 13V81.3C179.42 88.1 176.12 90.1 172.42 90.1C168.62 90.1 165.32 88.1 165.32 81.3V47.8H157.92V81.3C157.92 88.1 154.62 90.1 150.92 90.1Z" fill="url(#paint1_linear_156_4323)"/>
<path d="M65.3 91.3H22.1C9.6 91 5 82.4 5 73.1C5 63.7 8.6 55.2 22.3 54.9H65.1C78.8 54.9 82.4 63.7 82.4 73.1C82.4 82.4 78 91 65.3 91.3ZM26.6 77.7H60.8C64.7 77.4 66.3 76.7 66.3 73.1C66.3 69.4 64.7 68.7 60.8 68.4H26.6C22.7 68.7 21.1 69.4 21.1 73.1C21.1 76.7 22.7 77.4 26.6 77.7ZM26.6 49.1C11 49.1 4 42.9 4 27C4 11.1 11 4.7 26.6 4.7C42.2 4.7 49.2 11.1 49.2 27C49.2 43.9 42.1 49.1 26.6 49.1ZM26.6 35.9C31.9 35.9 32.9 33.7 32.9 27C32.9 20.3 31.9 18 26.6 18C21.3 18 20.3 20.3 20.3 27C20.3 33.7 21.3 35.9 26.6 35.9ZM70.6 52.7C66.1 52.7 62.5 50.6 62.5 43.9V13C62.5 6.3 66.3 4.3 70.6 4.3C74.5 4.3 78.2 6 78.6 11.9H85.2C92.9 11.9 94.3 15 94.3 18.2C94.3 22.2 92.8 24.7 85.2 24.7H78.7V30.3H85.2C92.9 30.3 94.3 33.4 94.3 36.6C94.3 40.6 92.8 43.1 85.2 43.1H78.7V43.9C78.7 50.8 74.9 52.7 70.6 52.7Z" fill="url(#paint2_linear_156_4323)"/>
<path d="M19.8397 9.41006C18.9206 7.48425 14.7558 8.50857 12.4716 10.4083C9.24011 12.8436 8.75044 16.7722 13.8757 15.6738C17.7934 14.8503 20.9084 11.4295 19.8641 9.44914L19.8481 9.40691L19.8397 9.41006Z" fill="white"/>
<path d="M105.602 8.31565C104.72 6.99505 102.089 8.04207 100.833 9.58108C99.0209 11.5764 99.2445 14.4455 102.505 13.274C105 12.39 106.597 9.69266 105.624 8.34203L105.607 8.31276L105.602 8.31565Z" fill="white"/>
<path d="M151.602 7.31565C150.72 5.99505 148.089 7.04207 146.833 8.58108C145.021 10.5764 145.245 13.4455 148.505 12.274C151 11.39 152.597 8.69266 151.624 7.34203L151.607 7.31276L151.602 7.31565Z" fill="white"/>
<path d="M217.602 6.31565C216.72 4.99505 214.089 6.04207 212.833 7.58108C211.021 9.57643 211.245 12.4455 214.505 11.274C217 10.39 218.597 7.69266 217.624 6.34203L217.607 6.31276L217.602 6.31565Z" fill="white"/>
<path d="M196.602 61.3156C195.72 59.995 193.089 61.0421 191.833 62.5811C190.021 64.5764 190.245 67.4455 193.505 66.274C196 65.39 197.597 62.6927 196.624 61.342L196.607 61.3128L196.602 61.3156Z" fill="white"/>
<path d="M12.0544 112.257C15.6194 112.257 17.3904 114.465 17.3904 117.363C17.3904 120.284 15.6194 122.492 12.0544 122.492C8.48936 122.492 6.71836 120.284 6.71836 117.363C6.71836 114.465 8.48936 112.257 12.0544 112.257ZM12.0544 114.189C9.80036 114.189 8.92636 115.615 8.92636 117.363C8.92636 119.111 9.80036 120.56 12.0544 120.56C14.3084 120.56 15.1824 119.111 15.1824 117.363C15.1824 115.615 14.3084 114.189 12.0544 114.189ZM21.5764 111.406C22.1744 111.406 22.7264 111.705 22.7264 112.372V114.511H25.1184C25.6474 114.511 25.9004 114.971 25.9004 115.5C25.9004 116.029 25.6474 116.489 25.1184 116.489H22.7264V118.444H25.1184C25.6474 118.444 25.9004 118.904 25.9004 119.433C25.9004 119.962 25.6474 120.422 25.1184 120.422H22.7264V123.067C22.7264 123.711 22.1744 124.01 21.5764 124.01C20.9784 124.01 20.4264 123.711 20.4264 123.067V112.372C20.4264 111.705 20.9784 111.406 21.5764 111.406ZM16.2634 124.217C20.4264 124.217 22.8414 125.689 22.8414 128.564C22.8414 131.439 20.4264 132.911 16.2634 132.911C12.1004 132.911 9.68536 131.439 9.68536 128.564C9.68536 125.689 12.1004 124.217 16.2634 124.217ZM16.2634 126.08C13.2274 126.08 11.9624 127.046 11.9624 128.564C11.9624 130.082 13.2274 131.048 16.2634 131.048C19.2764 131.048 20.5644 130.082 20.5644 128.564C20.5644 127.046 19.2764 126.08 16.2634 126.08ZM46.014 112.372C46.566 112.372 46.819 112.832 46.819 113.361C46.819 113.89 46.566 114.327 46.014 114.327H42.265V115.27C42.265 116.581 42.702 117.34 43.714 118.076C44.795 118.858 45.738 119.502 46.543 119.985C47.049 120.307 47.095 120.951 46.796 121.388C46.543 121.802 45.968 122.055 45.393 121.71C44.726 121.296 43.829 120.698 42.909 120.031C41.713 119.157 41.253 118.628 41.161 118.214H41.138C41.023 118.697 40.54 119.272 39.321 120.123C38.332 120.836 37.412 121.457 36.4 122.101C35.871 122.423 35.296 122.124 35.043 121.733C34.767 121.296 34.721 120.675 35.273 120.33C36.377 119.64 37.389 118.95 38.516 118.145C39.528 117.386 39.965 116.627 39.965 115.316V114.327H36.055C35.48 114.327 35.227 113.89 35.227 113.361C35.227 112.832 35.48 112.372 36.055 112.372H46.014ZM50.499 111.406C51.097 111.406 51.649 111.705 51.649 112.372V121.296C51.649 121.963 51.097 122.262 50.499 122.262C49.901 122.262 49.349 121.963 49.349 121.296V112.372C49.349 111.705 49.901 111.406 50.499 111.406ZM49.878 123.251C51.212 123.251 51.649 123.665 51.649 124.976V127.092C51.649 128.403 51.212 128.817 49.878 128.817H40.977C40.632 128.817 40.494 128.932 40.494 129.3V130.289C40.494 130.634 40.632 130.772 40.977 130.772H51.396C51.925 130.772 52.155 131.209 52.155 131.692C52.155 132.175 51.925 132.612 51.396 132.612H40.034C38.7 132.612 38.263 132.198 38.263 130.887V128.771C38.263 127.46 38.7 127.046 40.034 127.046H48.912C49.28 127.046 49.395 126.931 49.395 126.563V125.574C49.395 125.229 49.28 125.114 48.912 125.114H38.976C38.447 125.114 38.217 124.677 38.217 124.171C38.217 123.688 38.447 123.251 38.976 123.251H49.878ZM69.3245 112.602C73.0045 112.602 74.8905 114.764 74.8905 117.616C74.8905 120.491 73.0045 122.653 69.3245 122.653C65.6445 122.653 63.7585 120.491 63.7585 117.616C63.7585 114.764 65.6445 112.602 69.3245 112.602ZM69.3245 114.534C67.0245 114.534 65.9435 115.868 65.9435 117.616C65.9435 119.364 67.0245 120.721 69.3245 120.721C71.6245 120.721 72.7055 119.364 72.7055 117.616C72.7055 115.868 71.6245 114.534 69.3245 114.534ZM75.6495 125.252C76.1785 125.206 76.4775 125.574 76.5005 126.126C76.5465 126.655 76.3395 127.138 75.8105 127.184C72.1305 127.529 67.8295 127.667 63.3215 127.667C62.7695 127.667 62.5165 127.207 62.5165 126.678C62.5165 126.149 62.7695 125.689 63.3215 125.689C67.3925 125.689 71.3945 125.643 75.6495 125.252ZM78.8465 111.406C79.4445 111.406 79.9965 111.705 79.9965 112.372V130.312C79.9965 130.979 79.4445 131.278 78.8465 131.278C78.2715 131.278 77.7195 130.979 77.7195 130.312V112.372C77.7195 111.705 78.2715 111.406 78.8465 111.406ZM105.615 123.435C105.615 123.803 105.753 123.918 106.098 123.918H109.364C109.709 123.918 109.847 123.803 109.847 123.435V119.64H105.615V123.435ZM104.557 112.901C105.086 112.901 105.615 113.2 105.615 113.821V117.708H109.847V113.821C109.847 113.2 110.376 112.901 110.905 112.901C111.457 112.901 111.986 113.2 111.986 113.821V124.148C111.986 125.459 111.549 125.873 110.215 125.873H105.247C103.913 125.873 103.476 125.459 103.476 124.148V113.821C103.476 113.2 104.005 112.901 104.557 112.901ZM119.852 111.406C120.404 111.406 120.933 111.682 120.933 112.303V130.381C120.933 131.002 120.404 131.278 119.852 131.278C119.323 131.278 118.794 131.002 118.794 130.381V120.422H116.333V129.415C116.333 130.036 115.804 130.312 115.252 130.312C114.723 130.312 114.194 130.036 114.194 129.415V112.533C114.194 111.912 114.723 111.636 115.252 111.636C115.804 111.636 116.333 111.912 116.333 112.533V118.467H118.794V112.303C118.794 111.682 119.323 111.406 119.852 111.406ZM146.682 112.786C147.234 112.786 147.487 113.246 147.487 113.775C147.487 114.304 147.234 114.764 146.682 114.764H136.263C135.918 114.764 135.78 114.879 135.78 115.224V120.514C135.78 120.859 135.918 120.997 136.263 120.997H146.912C147.464 120.997 147.717 121.434 147.717 121.963C147.717 122.492 147.464 122.952 146.912 122.952H135.228C133.894 122.952 133.48 122.538 133.48 121.227V114.511C133.48 113.2 133.894 112.786 135.228 112.786H146.682ZM149.373 127.299C149.925 127.299 150.178 127.736 150.178 128.288C150.178 128.817 149.925 129.277 149.373 129.277H131.663C131.111 129.277 130.858 128.817 130.858 128.288C130.858 127.736 131.111 127.299 131.663 127.299H149.373ZM168.152 112.717C169.486 112.717 169.923 113.131 169.923 114.442V121.112C169.923 122.423 169.486 122.837 168.152 122.837H161.781C160.447 122.837 160.01 122.423 160.01 121.112V114.442C160.01 113.131 160.447 112.717 161.781 112.717H168.152ZM162.77 114.672C162.402 114.672 162.287 114.787 162.287 115.155V120.422C162.287 120.767 162.402 120.905 162.77 120.905H167.163C167.508 120.905 167.646 120.767 167.646 120.422V115.155C167.646 114.787 167.508 114.672 167.163 114.672H162.77ZM174.983 111.406C175.581 111.406 176.133 111.705 176.133 112.372V125.988C176.133 126.655 175.581 126.954 174.983 126.954C174.385 126.954 173.833 126.655 173.833 125.988V112.372C173.833 111.705 174.385 111.406 174.983 111.406ZM163.874 125.022C164.449 125.022 165.024 125.321 165.024 125.988V129.875C165.024 130.22 165.139 130.335 165.507 130.335H175.857C176.432 130.335 176.685 130.795 176.685 131.347C176.685 131.876 176.432 132.336 175.857 132.336H164.472C163.138 132.336 162.701 131.922 162.701 130.611V125.988C162.701 125.321 163.253 125.022 163.874 125.022ZM196.937 112.625C197.489 112.625 197.742 113.085 197.742 113.614C197.742 114.12 197.489 114.58 196.937 114.58H190.658C190.29 114.58 190.175 114.695 190.175 115.063V117.202H196.017C196.569 117.202 196.822 117.639 196.822 118.168C196.822 118.674 196.569 119.111 196.017 119.111H190.175V121.342C190.175 121.687 190.29 121.802 190.658 121.802C193.694 121.802 196.247 121.664 198.731 121.319C199.26 121.25 199.605 121.618 199.651 122.147C199.72 122.676 199.513 123.182 199.007 123.251C196.868 123.55 194.131 123.757 189.669 123.757C188.335 123.757 187.898 123.343 187.898 122.032V114.35C187.898 113.039 188.335 112.625 189.669 112.625H196.937ZM203.078 111.406C203.653 111.406 204.205 111.705 204.205 112.372V125.988C204.205 126.655 203.653 126.954 203.078 126.954C202.48 126.954 201.928 126.655 201.928 125.988V118.789H198.846C198.271 118.789 198.018 118.352 198.018 117.8C198.018 117.248 198.271 116.811 198.846 116.811H201.928V112.372C201.928 111.705 202.48 111.406 203.078 111.406ZM191.854 125.482C192.429 125.482 193.004 125.781 193.004 126.448V129.875C193.004 130.22 193.119 130.335 193.487 130.335H203.929C204.504 130.335 204.757 130.795 204.757 131.347C204.757 131.876 204.504 132.336 203.929 132.336H192.452C191.118 132.336 190.681 131.922 190.681 130.611V126.448C190.681 125.781 191.233 125.482 191.854 125.482ZM237.069 111.13C237.69 111.13 238.242 111.429 238.242 112.096V113.453H243.739C244.314 113.453 244.567 113.89 244.567 114.442C244.567 114.948 244.314 115.408 243.739 115.408H238.219V115.753C238.219 116.972 238.817 117.777 240.151 118.375C241.715 119.065 243.141 119.663 244.498 120.169C245.004 120.353 245.119 120.974 244.912 121.48C244.705 121.986 244.176 122.239 243.647 122.032C242.428 121.572 241.071 121.02 239.829 120.468C237.759 119.594 237.23 118.927 237.092 118.398H237.069C236.908 118.973 236.379 119.64 234.332 120.514C233.067 121.066 231.733 121.618 230.514 122.078C229.962 122.285 229.433 122.032 229.226 121.503C229.019 120.974 229.134 120.353 229.64 120.169C230.997 119.663 232.423 119.065 233.987 118.375C235.321 117.777 235.919 116.972 235.919 115.753V115.408H230.399C229.824 115.408 229.571 114.948 229.571 114.442C229.571 113.89 229.824 113.453 230.399 113.453H235.896V112.096C235.896 111.429 236.471 111.13 237.069 111.13ZM245.924 123.688C246.476 123.688 246.729 124.148 246.729 124.677C246.729 125.206 246.476 125.643 245.924 125.643H238.219V131.922C238.219 132.589 237.667 132.888 237.069 132.888C236.471 132.888 235.919 132.589 235.919 131.922V125.643H228.214C227.662 125.643 227.409 125.206 227.409 124.677C227.409 124.148 227.662 123.688 228.214 123.688H245.924ZM256.147 121.894H268.889C269.372 119.916 269.556 117.915 269.556 115.776V114.971C269.556 114.603 269.441 114.488 269.073 114.488H258.562C257.987 114.488 257.757 114.028 257.757 113.499C257.757 112.947 257.987 112.487 258.562 112.487H270.085C271.419 112.487 271.856 112.901 271.856 114.212V115.661C271.856 117.915 271.603 120.1 271.143 121.894H273.857C274.409 121.894 274.662 122.354 274.662 122.883C274.662 123.412 274.409 123.849 273.857 123.849H266.152V131.922C266.152 132.589 265.6 132.888 265.002 132.888C264.404 132.888 263.852 132.589 263.852 131.922V123.849H256.147C255.595 123.849 255.342 123.412 255.342 122.883C255.342 122.354 255.595 121.894 256.147 121.894Z" fill="#193A0D"/>
<defs>
<linearGradient id="paint0_linear_156_4323" x1="140.229" y1="-1.69999" x2="140.229" y2="98.3" gradientUnits="userSpaceOnUse">
<stop stop-color="#AEE199"/>
<stop offset="1" stop-color="#E8F2B6"/>
</linearGradient>
<linearGradient id="paint1_linear_156_4323" x1="51.9696" y1="-1.38013" x2="51.9696" y2="98.2714" gradientUnits="userSpaceOnUse">
<stop stop-color="#AEE199"/>
<stop offset="1" stop-color="#E8F2B6"/>
</linearGradient>
<linearGradient id="paint2_linear_156_4323" x1="-46.5657" y1="-1.45957" x2="-46.5657" y2="99.5857" gradientUnits="userSpaceOnUse">
<stop stop-color="#AEE199"/>
<stop offset="1" stop-color="#E8F2B6"/>
</linearGradient>
</defs>
</svg>
